<svg width="328" height="156" viewBox="0 0 328 156" fill="none" xmlns="http://www.w3.org/2000/svg">
<rect width="328" height="156" rx="20" fill="white"/>
<path d="M176.82 51.5671C181.492 47.7542 187.886 49.4281 193.38 49.0561C193.38 51.7664 193.38 54.4767 193.38 57.1869C190.452 57.0914 187.52 57.1534 184.598 57.3729C182.758 58.0903 183.293 60.3887 183.175 61.9564H195.442V69.9277H183.136V95.3031H174.001C174.001 86.8446 174.001 78.3862 174.001 69.9277H166.171V61.9564H174.001C173.818 58.3427 173.74 54.0382 176.82 51.5671Z" fill="black"/>
<path d="M304.828 49.335H314.055C314.055 64.6665 314.055 79.9979 314.055 95.3294H305.507C305.507 94.2533 305.507 93.1639 305.507 92.1011C304.043 93.5332 302.308 94.6474 300.408 95.3759C298.508 96.1044 296.482 96.4321 294.453 96.3391C291.97 96.4512 289.493 96.0153 287.191 95.0614C284.889 94.1074 282.817 92.658 281.116 90.8124C278.136 87.508 276.481 83.1868 276.477 78.701C276.472 74.2153 278.119 69.8907 281.092 66.5802C284.066 63.2697 288.15 61.2136 292.539 60.8176C296.928 60.4215 301.303 61.7142 304.802 64.4406C304.802 59.4054 304.828 54.3702 304.828 49.335ZM291.974 69.7548C286.858 71.4421 284.496 77.9254 286.754 82.7747C289.834 89.5636 300.848 89.6167 304.28 83.1466C305.233 80.5958 304.815 77.7261 304.685 75.069C303.001 69.994 296.672 68.2535 291.987 69.7415L291.974 69.7548Z" fill="black"/>
<path d="M141.597 61.3717C145.105 60.6923 148.715 60.792 152.181 61.664C154.489 62.2556 156.655 63.3192 158.546 64.7901C160.437 66.2611 162.015 68.1085 163.182 70.2199C164.756 73.175 165.469 76.5259 165.238 79.8793C165.007 83.2327 163.841 86.4494 161.877 89.1518C156.97 95.7945 147.705 97.7342 140.162 95.4358C136.573 94.2149 133.473 91.8369 131.33 88.6618C129.188 85.4867 128.12 81.6874 128.288 77.839C128.456 73.9907 129.851 70.3029 132.262 67.334C134.673 64.365 137.969 62.2766 141.65 61.385L141.597 61.3717ZM144.716 69.5024C143.518 69.8523 142.402 70.4483 141.438 71.2537C140.474 72.0591 139.683 73.0568 139.112 74.1855C138.541 75.3142 138.203 76.5499 138.119 77.8165C138.036 79.0831 138.207 80.3538 138.624 81.5503C139.041 82.7468 139.694 83.8437 140.543 84.7735C141.392 85.7034 142.419 86.4465 143.56 86.957C144.702 87.4675 145.934 87.7346 147.181 87.742C148.428 87.7493 149.663 87.4966 150.811 86.9995C151.954 86.4074 152.967 85.5848 153.788 84.5819C154.609 83.5789 155.221 82.4165 155.587 81.1652C155.953 79.9139 156.066 78.5999 155.918 77.303C155.77 76.0061 155.364 74.7534 154.726 73.621C153.704 71.9408 152.182 70.6359 150.383 69.8953C148.583 69.1548 146.598 69.0172 144.716 69.5024Z" fill="black"/>
<path d="M208.844 61.4118C213.652 60.3596 218.665 60.9188 223.134 63.0061C225.374 64.1259 227.346 65.7321 228.91 67.7117C230.475 69.6913 231.594 71.996 232.188 74.4635C232.783 76.931 232.839 79.5012 232.353 81.9931C231.866 84.4851 230.849 86.838 229.372 88.8863C224.517 95.7416 215.017 97.7611 207.37 95.3962C203.8 94.1661 200.72 91.7891 198.591 88.623C196.463 85.4569 195.402 81.6729 195.569 77.8401C195.735 74.0074 197.119 70.3333 199.514 67.3706C201.908 64.4079 205.182 62.3168 208.844 61.4118ZM211.037 69.8348C208.934 70.5622 207.164 72.0443 206.057 74.0038C204.95 75.9634 204.582 78.2663 205.022 80.482C205.462 82.6977 206.679 84.6745 208.447 86.0428C210.214 87.411 212.411 88.0772 214.625 87.9165C220.276 87.9165 224.609 81.6723 223.121 76.1853C222.793 74.9249 222.209 73.7487 221.406 72.7331C220.603 71.7175 219.599 70.8852 218.459 70.2901C217.32 69.695 216.07 69.3505 214.791 69.2789C213.513 69.2074 212.233 69.4104 211.037 69.8747V69.8348Z" fill="black"/>
<path d="M249.561 61.3585C255.446 60.2558 261.998 61.1193 266.787 65.0253C269.289 67.051 271.183 69.7492 272.257 72.8145C273.33 75.8798 273.539 79.1897 272.86 82.3697C272.181 85.5496 270.641 88.4725 268.414 90.8075C266.188 93.1425 263.364 94.7964 260.262 95.582C255.85 96.8466 251.158 96.656 246.86 95.0373C243.457 93.599 240.591 91.0989 238.673 87.8968C236.755 84.6947 235.884 80.9558 236.185 77.2179C236.487 73.48 237.946 69.9359 240.352 67.0956C242.758 64.2552 245.987 62.2651 249.574 61.4116L249.561 61.3585ZM251.792 69.7416C250.047 70.3137 248.51 71.4075 247.383 72.8807C246.257 74.354 245.591 76.1384 245.475 78.0018C245.358 79.8652 245.794 81.7212 246.728 83.3284C247.662 84.9355 249.049 86.2194 250.709 87.0129C252.462 87.8735 254.439 88.1418 256.352 87.7785C258.266 87.4153 260.015 86.4395 261.345 84.9934C262.901 83.3082 263.804 81.1055 263.885 78.7942C263.967 76.4829 263.222 74.2199 261.789 72.4253C260.576 71.0171 258.978 70.0094 257.2 69.5313C255.421 69.0531 253.543 69.1264 251.805 69.7416H251.792Z" fill="black"/>
<path d="M91.9025 66.1808C97.8925 60.1492 108.672 59.2857 115.04 65.1844C115.04 64.1083 115.04 63.0322 115.04 61.9561H123.862C123.862 72.859 123.862 83.7576 123.862 94.6518C123.885 97.001 123.362 99.3225 122.334 101.426C121.307 103.53 119.804 105.356 117.95 106.755C114.63 109.16 110.646 110.434 106.571 110.395C103.151 110.638 99.7242 110.041 96.5786 108.654C93.4331 107.266 90.6612 105.13 88.4965 102.424C90.715 100.524 92.9465 98.6507 95.165 96.7641C96.5127 98.687 98.3424 100.207 100.463 101.165C102.584 102.123 104.919 102.484 107.223 102.211C108.6 102.132 109.938 101.717 111.124 101C112.31 100.283 113.308 99.2856 114.035 98.0927C114.87 96.2483 115.233 94.2194 115.092 92.1939C112.919 94.2483 110.193 95.5947 107.262 96.06C103.832 96.5318 100.34 96.0972 97.1225 94.7979C94.5209 93.6645 92.2344 91.8947 90.4661 89.6455C88.6978 87.3964 87.5023 84.7375 86.9859 81.905C86.4695 79.0725 86.648 76.154 87.5057 73.4086C88.3634 70.6632 89.8737 68.1759 91.9025 66.1675V66.1808ZM101.847 70.1665C96.0263 71.8139 94.1602 79.9048 97.775 84.4883C101.39 89.0718 108.672 88.8061 112.652 85.033C115.184 82.615 114.74 78.749 114.453 75.5737C112.965 70.4189 106.492 68.373 101.847 70.2064V70.1665Z" fill="black"/>
<path d="M37.4973 52.4303C42.4545 51.5562 47.5489 51.9889 52.2953 53.6869C57.0417 55.385 61.282 58.2919 64.6123 62.1308C67.9426 65.9697 70.2521 70.6127 71.3206 75.6175C72.3891 80.6224 72.1812 85.8224 70.7166 90.7223C69.2519 95.6221 66.5794 100.059 62.9536 103.609C59.3278 107.16 54.8694 109.706 50.0031 111.006C45.1368 112.306 40.0247 112.315 35.1538 111.034C30.2828 109.752 25.8152 107.223 22.1766 103.686C17.644 99.3363 14.5982 93.6237 13.4852 87.3845C12.7813 83.4865 12.8438 79.485 13.6691 75.6118C14.4944 71.7385 16.066 68.0704 18.2931 64.8196C20.5202 61.5688 23.3585 58.8 26.6437 56.6734C29.9289 54.5467 33.5958 53.1045 37.4321 52.4303H37.4973ZM30.3068 66.9381C29.9153 70.3525 30.3851 73.8067 30.0849 77.2344C29.9384 77.5004 29.7117 77.7113 29.4384 77.8361C29.165 77.9609 28.8595 77.9929 28.567 77.9273C28.2744 77.8618 28.0103 77.7022 27.8136 77.4722C27.617 77.2421 27.4982 76.9538 27.4749 76.6498C27.1747 73.8333 28.0882 71.0566 28.0099 68.2799C27.8694 67.8333 27.5958 67.4424 27.2271 67.1613C26.8585 66.8802 26.413 66.7229 25.9525 66.7112C25.492 66.6995 25.0394 66.8341 24.6575 67.0961C24.2755 67.3582 23.9831 67.7347 23.8209 68.1736C23.2235 71.5443 22.9438 74.9654 22.9857 78.3902C22.9529 80.1915 23.3705 81.9718 24.1991 83.5637C25.0278 85.1556 26.2403 86.507 27.7228 87.4908C30.9593 89.6829 29.1845 94.1336 30.2154 97.2955C30.4191 97.7206 30.7384 98.0772 31.1352 98.323C31.5321 98.5688 31.9899 98.6936 32.4543 98.6824C32.9188 98.6712 33.3703 98.5245 33.7553 98.2598C34.1403 97.9952 34.4426 97.6236 34.6263 97.1892C35.4746 94.2133 33.9477 90.2143 36.7013 88.0222C38.0238 87.252 39.1551 86.1832 40.0081 84.898C40.861 83.6128 41.4129 82.1454 41.6212 80.6089C41.9223 76.4833 41.703 72.3355 40.9687 68.2666C40.5511 66.1409 37.2624 66.2871 36.7926 68.2666C36.5969 71.4552 38.2281 74.9094 36.6491 77.9252C35.6964 77.9252 34.7307 77.5665 34.6263 76.4505C34.3131 73.169 34.8482 69.8077 34.3784 66.5793C34.1834 66.1757 33.8731 65.8416 33.4884 65.6206C33.1036 65.3995 32.6622 65.302 32.222 65.3408C31.7819 65.3796 31.3635 65.5528 31.0217 65.8379C30.6799 66.1229 30.4308 66.5064 30.3068 66.9381ZM51.6567 65.6095C49.838 66.4369 48.364 67.8905 47.4937 69.7147C45.9498 72.7428 45.1188 76.0949 45.0664 79.5062C45.0569 81.0007 45.4091 82.4746 46.092 83.7977C46.7748 85.1208 47.7672 86.2523 48.9814 87.0922C52.2309 89.5235 50.1559 94.2 51.4218 97.4948C51.6562 97.8768 51.9872 98.1876 52.3801 98.3946C52.773 98.6016 53.2133 98.6972 53.655 98.6714C54.0967 98.6455 54.5234 98.4993 54.8905 98.2478C55.2575 97.9964 55.5515 97.6491 55.7414 97.2423C56.3156 94.7181 55.8588 92.061 56.3416 89.5234C56.8767 87.3048 59.3301 86.521 60.4524 84.6743C62.3969 82.0172 62.1489 78.3769 61.5356 75.2548C61.0199 72.1921 59.6625 69.3408 57.6206 67.031C56.8519 66.253 55.8852 65.709 54.8291 65.4602C53.7731 65.2113 52.6699 65.2677 51.6436 65.6228L51.6567 65.6095Z" fill="#ED2736"/>
</svg>
