<svg width="328" height="156" viewBox="0 0 328 156" fill="none" xmlns="http://www.w3.org/2000/svg">
<rect width="328" height="156" rx="20" fill="white"/>
<path d="M16.138 77.1843C16.072 79.6654 16.5043 82.1345 17.4092 84.4447C18.3142 86.7549 19.6734 88.8592 21.4059 90.6324C23.1385 92.4056 25.209 93.8115 27.4945 94.7666C29.78 95.7216 32.2337 96.2063 34.7098 96.1918C44.8505 96.1918 49.8629 89.6575 49.8629 82.4553V79.9287H35.1734V83.8928H45.8356C45.8356 87.7843 42.3443 92.3438 34.7098 92.3438C26.2786 92.3438 20.4261 86.071 20.4261 77.2279C20.3713 75.2435 20.723 73.2689 21.4595 71.4262C22.1961 69.5834 23.3018 67.9116 24.7083 66.514C26.1149 65.1164 27.7924 64.0227 29.6372 63.3006C31.482 62.5784 33.455 62.2431 35.4342 62.3153C40.5395 62.1859 45.5498 63.7139 49.718 66.6715L49.9787 66.4682V62.7655C45.6225 59.8834 40.5088 58.3669 35.2893 58.4093C32.798 58.367 30.3231 58.8207 28.008 59.744C25.6928 60.6673 23.5835 62.0419 21.8022 63.7882C20.0209 65.5346 18.603 67.6178 17.6307 69.9173C16.6584 72.2168 16.1511 74.6869 16.138 77.1843ZM10.0102 77.1843C9.91523 80.4613 10.4858 83.7235 11.6872 86.7727C12.8886 89.8218 14.6958 92.5945 16.9991 94.9221C19.3023 97.2498 22.0535 99.0839 25.0856 100.313C28.1177 101.542 31.3674 102.141 34.6374 102.073C47.545 102.073 55.4547 93.9556 55.4547 80.8145V74.1205H35.1734V77.954H51.833V81.5115C51.833 91.8066 45.4444 98.2102 34.7098 98.2102C22.9177 98.2102 14.1678 89.1638 14.1678 77.2134C14.1614 74.4478 14.7067 71.7088 15.7715 69.1574C16.8363 66.606 18.3992 64.2938 20.3684 62.3565C22.3376 60.4193 24.6732 58.8961 27.2381 57.8766C29.803 56.8572 32.5452 56.3619 35.3038 56.42C40.5009 56.2631 45.6231 57.691 49.9932 60.5148V56.6233C45.6522 53.7352 40.5091 52.3015 35.3038 52.5285C21.02 52.4994 10.0102 63.3898 10.0102 77.1843ZM63.8859 80.5531V100.882H67.7683V80.5531C67.7683 75.9937 70.6656 72.7701 75.142 72.7701C76.4381 72.7942 77.7154 73.0858 78.894 73.6268C79.3571 72.4757 79.9296 71.3719 80.6035 70.3307C78.9738 69.3484 77.1013 68.8452 75.2 68.8786C68.5651 68.8786 63.8859 73.6849 63.8859 80.5531ZM58.0913 100.882H61.9737V80.5531C61.9737 72.4942 67.3772 67.02 75.2145 67.02C77.4819 67.022 79.7164 67.5645 81.7334 68.6027C82.5013 67.6411 83.3599 66.7561 84.2976 65.96C81.5469 64.1372 78.3085 63.1953 75.0116 63.2591C64.6682 63.2591 58.0913 70.2581 58.0913 80.6838V101.013V100.882ZM118.935 78.0411V83.8493C121.238 80.7419 123.281 78.0411 125.063 75.7904C129.742 69.9822 133.755 66.8748 140.143 66.8748C148.705 66.8748 154.963 73.3364 154.963 82.4553C154.963 91.5742 148.835 98.1666 140.477 98.1666C137.212 98.202 134.032 97.123 131.46 95.1069C128.887 93.0908 127.076 90.2575 126.323 87.0728L123.556 90.8337C124.846 94.2352 127.165 97.1466 130.19 99.1596C133.214 101.173 136.791 102.186 140.419 102.058C151.081 102.058 158.918 93.4764 158.918 82.4553C158.918 71.4342 151.008 62.9107 140.216 62.9107C129.076 62.9252 123.947 71.3181 119.109 78.1137L118.935 78.0411ZM130.988 80.9452H130.858L127.83 85.0981C128.308 88.126 129.826 90.8916 132.122 92.9171C134.418 94.9426 137.347 96.1009 140.404 96.1918C147.778 96.1918 153.109 90.1803 153.109 82.3247C153.109 74.4691 147.648 68.6608 140.071 68.6608C132.495 68.6608 128.482 74.0044 125.584 77.9685C124.136 79.8852 121.63 82.978 118.863 86.8841V93.2151C121.427 89.3817 124.918 84.8947 127.555 81.8019C131.901 76.589 134.537 72.6249 140.071 72.6249C145.605 72.6249 149.154 76.7778 149.154 82.3247C149.154 87.8715 145.663 92.2857 140.462 92.2857C134.928 92.2857 131.046 87.2035 131.046 81.526V80.9307L130.988 80.9452ZM127.105 49V65.4372C128.272 64.4015 129.579 63.5362 130.988 62.8671V49H127.105ZM121.311 71.4488C122.514 69.8537 123.811 68.3312 125.193 66.8893V49.0726H121.311V71.4488ZM105.506 90.3254C103.485 91.7471 101.064 92.4848 98.5958 92.4309C93.3227 92.4309 89.3824 88.4669 89.3824 82.6006C89.3824 76.9956 93.2648 72.6975 98.4655 72.6975C104.057 72.6975 107.491 76.7923 107.491 82.2665V101.013H111.373V82.1359C111.373 74.4836 106.042 68.8641 98.5379 68.8641C91.0338 68.8641 85.3696 74.469 85.3696 82.6586C85.3696 90.8482 91.0338 96.5839 98.5379 96.3951C101.021 96.3289 103.446 95.6239 105.578 94.3476L105.506 90.3254ZM79.43 82.4698C79.43 93.9556 87.5281 102.073 98.4655 102.073C100.972 102.113 103.431 101.378 105.506 99.9671V96.0756C103.425 97.4742 100.971 98.2082 98.4655 98.1811C89.5127 98.1811 83.4574 91.8501 83.4574 82.4698C83.4574 73.5542 89.9039 66.8893 98.4655 66.8893C107.027 66.8893 113.314 73.1622 113.314 81.9471V100.954H117.269V81.8745C117.269 70.9115 109.562 62.8671 98.6393 62.8671C96.0897 62.8543 93.5636 63.3562 91.2116 64.3428C88.8596 65.3295 86.73 66.7808 84.9495 68.6101C83.1691 70.4394 81.7743 72.6094 80.8485 74.9905C79.9226 77.3717 79.4846 79.9153 79.5604 82.4698H79.43Z" fill="#00B14F"/>
<path d="M173.202 60.5002V75.1079H192.512V82.2375H173.202V100.94H165.466V53.3706H194.729V60.5002H173.202ZM235.494 82.6295C235.494 94.2459 227.976 101.927 216.966 101.927C205.956 101.927 198.379 94.2024 198.379 82.6295C198.379 71.0566 205.956 63.2736 216.966 63.2736C227.976 63.2736 235.422 71.0711 235.422 82.6295H235.494ZM216.966 70.4758C210.635 70.4758 205.956 75.4999 205.956 82.6295C205.956 89.7591 210.635 94.7251 216.966 94.7251C223.296 94.7251 227.903 89.7736 227.903 82.6295C227.903 75.4854 223.224 70.4758 216.893 70.4758H216.966ZM276.824 82.6295C276.824 94.2459 269.306 101.927 258.296 101.927C247.286 101.927 239.71 94.2024 239.71 82.6295C239.71 71.0566 247.286 63.2736 258.296 63.2736C269.306 63.2736 276.752 71.0711 276.752 82.6295H276.824ZM258.18 70.4758C251.85 70.4758 247.17 75.4999 247.17 82.6295C247.17 89.7591 251.85 94.7251 258.18 94.7251C264.511 94.7251 269.118 89.7736 269.118 82.6295C269.118 75.4854 264.554 70.4758 258.18 70.4758ZM298.989 63.2155C304.262 63.2155 308.738 66.2503 310.057 69.561H310.39V49.4355H317.966V82.3391C317.966 94.2895 310.318 101.956 299.511 101.956C288.704 101.956 280.924 94.4928 280.924 82.6005C280.924 70.7082 288.747 63.2736 299.032 63.2736L298.989 63.2155ZM299.511 94.6671C305.769 94.6671 310.39 89.6429 310.39 81.9761C310.39 74.9772 305.58 70.3597 299.38 70.3597C293.18 70.3597 288.501 74.8465 288.501 82.1794C288.602 89.9043 293.296 94.7251 299.568 94.7251L299.511 94.6671Z" fill="#00B14F"/>
</svg>
