<svg width="418" height="245" viewBox="0 0 418 245" fill="none" xmlns="http://www.w3.org/2000/svg">
<path d="M115.427 168.94C115.744 168.855 116.098 168.824 116.433 168.884C117.077 168.988 117.662 169.343 118.035 169.86L118.504 170.501C128.842 184.708 143.843 191.232 157.657 187.531C171.472 183.829 181.044 170.806 182.865 153.469L182.961 152.634C183.039 151.974 183.382 151.349 183.914 150.951C184.16 150.758 184.461 150.613 184.759 150.533C185.097 150.443 185.455 150.432 185.79 150.491L186.595 150.638C202.017 153.173 207.776 152.119 216.467 150.493L217.401 150.328C218.112 150.202 218.863 150.384 219.414 150.854C219.965 151.324 220.301 152.022 220.284 152.751L220.26 153.695C219.81 189.408 199.456 217.846 168.453 226.153C137.45 234.46 105.604 220.01 87.3426 189.331L86.906 188.575C86.5569 187.987 86.4698 187.264 86.6726 186.592C86.8754 185.92 87.3499 185.388 87.9927 185.088L88.7891 184.726C100.169 179.483 104.608 176.675 114.03 169.762L114.65 169.298C114.901 169.124 115.183 168.984 115.461 168.91L115.427 168.94ZM159.324 193.751C143.803 197.91 127.112 191.434 115.268 176.843C108.084 182.027 103.339 184.96 94.7605 189.069C111.731 215.088 139.733 227.181 166.786 219.932C193.839 212.683 211.902 188.396 213.716 157.535C206.633 158.73 200.37 159.173 188.836 157.492C185.841 175.847 174.706 189.629 159.344 193.746L159.324 193.751Z" fill="#F59220"/>
<path d="M115.44 171.769C105.88 178.804 101.343 181.638 89.78 186.995L89.0035 187.352L89.4402 188.108C107.141 217.808 137.893 231.827 167.824 223.807C197.755 215.787 217.378 188.27 217.858 153.699L217.881 152.755L216.947 152.92C207.988 154.575 202.07 155.671 186.223 153.059L185.398 152.917L185.317 153.727C183.369 172.099 173.018 185.949 158.311 189.89C143.603 193.831 127.495 186.985 116.55 171.94L116.086 171.319L115.465 171.784L115.44 171.769ZM186.75 154.707C201.705 157.09 208.099 156.101 216.268 154.593C215.459 188.017 196.373 214.517 167.414 222.277C138.456 230.036 108.606 216.606 91.2231 188.014C102.083 182.974 106.709 180.073 115.743 173.456C127.074 188.589 143.467 195.465 158.71 191.38C173.834 187.328 184.541 173.297 186.77 154.701L186.75 154.707Z" fill="#F59220"/>
<path d="M107.978 174.408C108.99 174.136 110.073 174.528 110.657 175.436L111.021 175.999C123.406 195.068 142.682 203.812 161.339 198.813C179.996 193.813 191.429 177.331 192.584 155.444L192.617 154.775C192.669 153.696 193.411 152.815 194.424 152.544C194.563 152.507 194.701 152.47 194.831 152.477L195.498 152.426C197.992 152.206 199.901 152.184 201.745 152.159C203.504 152.134 205.288 152.125 207.593 151.912L208.464 151.828C209.17 151.766 209.852 152.01 210.364 152.49C210.876 152.971 211.142 153.645 211.139 154.349L211.119 155.227C210.192 186.383 193.038 210.171 166.402 217.308C139.765 224.445 112.239 211.905 95.8995 185.461L95.443 184.71C95.0741 184.128 94.9817 183.386 95.1845 182.714C95.3873 182.041 95.8564 181.49 96.4993 181.19L97.2956 180.827C99.1701 179.963 100.287 179.131 101.582 178.166C102.985 177.13 104.545 175.967 107.008 174.838L107.611 174.549C107.745 174.491 107.879 174.434 107.998 174.402L107.978 174.408ZM163.006 205.033C142.443 210.543 121.296 201.725 107.305 181.979C106.634 182.415 106.029 182.854 105.394 183.343C104.72 183.844 104.011 184.374 103.192 184.892C118.17 206.887 142.058 217.122 164.704 211.053C182.627 206.251 202.212 189.948 204.491 158.516C203.584 158.546 202.737 158.56 201.884 158.554C200.887 158.565 199.891 158.577 198.795 158.615C196.627 181.966 183.047 199.642 163.001 205.013L163.006 205.033Z" fill="#F59220"/>
<path d="M108.003 177.042C105.748 178.073 104.35 179.129 103.002 180.129C101.653 181.13 100.373 182.069 98.2764 183.057L97.4801 183.419L97.9366 184.17C113.701 209.66 140.318 221.741 165.743 214.929C191.169 208.116 207.759 185.161 208.665 155.118L208.685 154.24L207.814 154.324C205.465 154.527 203.621 154.553 201.842 154.582C200.037 154.597 198.148 154.613 195.739 154.833L195.072 154.884L195.039 155.553C193.837 178.539 181.161 196.015 161.988 201.152C142.815 206.29 121.964 197.307 108.99 177.31L108.626 176.748L108.023 177.037L108.003 177.042ZM196.543 156.322C198.584 156.158 200.238 156.141 201.853 156.134C203.443 156.113 205.078 156.101 207.079 155.948C205.7 190.42 184.671 208.238 165.338 213.418C140.846 219.981 115.172 208.478 99.7195 184.076C101.518 183.168 102.744 182.264 103.93 181.371C105.136 180.473 106.288 179.611 108.052 178.733C121.433 198.898 142.182 208.057 162.387 202.643C182.057 197.372 195.093 179.651 196.537 156.302L196.543 156.322Z" fill="#F59220"/>
<path d="M90.1179 184.923C90.5149 184.817 90.9385 184.81 91.349 184.913C91.9846 185.062 92.52 185.472 92.8386 186.026C109.586 214.15 138.616 227.458 166.76 219.917C194.905 212.376 213.391 186.335 213.833 153.606C213.852 152.961 214.11 152.338 214.566 151.897C214.87 151.602 215.24 151.396 215.637 151.29C215.856 151.232 216.079 151.193 216.299 151.219L217.86 151.248C219.206 151.271 220.292 152.386 220.27 153.734C219.809 189.408 199.455 217.845 168.452 226.152C137.449 234.459 105.603 220.009 87.3421 189.33C86.6494 188.174 87.0323 186.666 88.1869 185.973L89.524 185.167C89.7263 185.049 89.9141 184.956 90.1324 184.898L90.1179 184.923Z" fill="#F59220"/>
<path d="M90.7716 187.283C108.099 216.38 138.178 230.111 167.414 222.277C196.65 214.443 215.834 187.513 216.291 153.65L217.852 153.679C217.372 188.251 197.73 215.773 167.819 223.788C137.908 231.802 107.136 217.789 89.4345 188.089L90.7716 187.283Z" fill="#F59220"/>
<path d="M248.786 133.207C249.104 133.122 249.457 133.091 249.792 133.15C250.437 133.254 251.021 133.609 251.394 134.127L251.863 134.768C262.201 148.974 277.202 155.498 291.017 151.797C304.831 148.095 314.403 135.072 316.225 117.735L316.305 116.925C316.379 116.245 316.707 115.646 317.259 115.243C317.505 115.049 317.806 114.904 318.104 114.825C318.441 114.734 318.8 114.723 319.135 114.783L319.96 114.924C335.401 117.453 341.141 116.405 349.831 114.78L350.766 114.614C351.476 114.488 352.227 114.67 352.784 115.16C353.335 115.63 353.651 116.333 353.654 117.057L353.63 118.001C353.169 153.675 332.815 182.112 301.812 190.419C270.809 198.726 238.963 184.276 220.702 153.597L220.265 152.841C219.916 152.253 219.829 151.531 220.032 150.859C220.235 150.187 220.709 149.655 221.332 149.36L222.109 149.003C233.469 143.765 237.927 140.951 247.35 134.039L247.97 133.574C248.221 133.401 248.503 133.261 248.781 133.187L248.786 133.207ZM292.683 158.017C277.162 162.176 260.472 155.7 248.607 141.114C241.423 146.298 236.678 149.231 228.1 153.34C245.07 179.359 273.072 191.453 300.125 184.204C327.178 176.955 345.241 152.668 347.056 121.807C339.973 123.002 333.729 123.439 322.176 121.764C319.18 140.118 308.046 153.901 292.683 158.017Z" fill="#F59220"/>
<path d="M248.799 136.036C239.234 143.051 234.702 145.905 223.139 151.261L222.362 151.619L222.799 152.375C240.495 182.055 271.247 196.074 301.178 188.054C331.109 180.034 350.731 152.517 351.211 117.946L351.235 117.002L350.3 117.167C341.341 118.822 335.423 119.918 319.576 117.306L318.752 117.165L318.671 117.974C316.722 136.346 306.372 150.196 291.664 154.137C276.957 158.078 260.848 151.232 249.903 136.187L249.439 135.566L248.819 136.031L248.799 136.036ZM320.128 118.968C335.084 121.351 341.457 120.368 349.646 118.855C348.838 152.279 329.737 178.804 300.778 186.564C271.82 194.323 241.97 180.893 224.567 152.306C235.428 147.266 240.054 144.365 249.088 137.748C260.418 152.881 276.811 159.757 292.054 155.672C307.298 151.588 317.885 137.59 320.114 118.993L320.128 118.968Z" fill="#F59220"/>
<path d="M241.337 138.674C242.349 138.403 243.438 138.814 244.017 139.702L244.38 140.265C256.765 159.334 276.036 168.058 294.693 163.059C313.351 158.06 324.783 141.577 325.938 119.69L325.971 119.021C326.023 117.942 326.765 117.061 327.778 116.79C327.917 116.753 328.056 116.716 328.185 116.724L328.852 116.673C331.346 116.452 333.275 116.425 335.119 116.399C336.793 116.377 338.642 116.371 340.947 116.158L341.818 116.074C342.524 116.013 343.206 116.256 343.718 116.736C344.23 117.217 344.515 117.886 344.493 118.595L344.473 119.474C343.526 150.634 326.397 174.437 299.741 181.58C273.085 188.722 245.578 176.176 229.239 149.733L228.782 148.982C228.414 148.399 228.321 147.657 228.524 146.985C228.727 146.313 229.196 145.761 229.839 145.461L230.635 145.099C232.51 144.234 233.627 143.402 234.921 142.438C236.324 141.401 237.885 140.238 240.362 139.084L240.965 138.795C241.099 138.738 241.233 138.68 241.352 138.649L241.337 138.674ZM296.365 169.299C275.803 174.809 254.656 165.991 240.664 146.245C240.008 146.655 239.423 147.089 238.788 147.579C238.094 148.084 237.385 148.615 236.537 149.183C251.514 171.178 275.402 181.413 298.049 175.345C315.972 170.542 335.557 154.239 337.835 122.807C336.948 122.832 336.101 122.846 335.294 122.849C334.277 122.866 333.255 122.863 332.165 122.921C329.997 146.272 316.417 163.947 296.371 169.319L296.365 169.299Z" fill="#F59220"/>
<path d="M241.363 141.309C239.107 142.339 237.71 143.395 236.361 144.396C235.012 145.396 233.732 146.335 231.636 147.323L230.839 147.686L231.296 148.437C247.061 173.927 273.677 186.008 299.103 179.195C324.528 172.383 341.118 149.427 342.024 119.385L342.044 118.506L341.173 118.591C338.824 118.794 336.98 118.82 335.201 118.849C333.397 118.864 331.508 118.88 329.099 119.099L328.432 119.15L328.398 119.82C327.197 142.805 314.521 160.282 295.347 165.419C276.174 170.556 255.323 161.574 242.349 141.577L241.986 141.014L241.383 141.304L241.363 141.309ZM329.902 120.588C331.943 120.425 333.598 120.407 335.212 120.401C336.802 120.379 338.437 120.367 340.438 120.215C339.06 154.686 318.03 172.505 298.698 177.685C274.205 184.248 248.531 172.745 233.079 148.342C234.878 147.434 236.104 146.531 237.29 145.638C238.496 144.74 239.647 143.877 241.417 143.02C254.798 163.184 275.547 172.343 295.752 166.929C315.422 161.659 328.457 143.937 329.922 120.583L329.902 120.588Z" fill="#F59220"/>
<path d="M349.017 115.551C349.236 115.492 349.459 115.454 349.679 115.48L351.24 115.509C352.586 115.532 353.672 116.647 353.65 117.994C353.17 153.674 332.815 182.111 301.812 190.418C270.81 198.725 238.963 184.275 220.702 153.596C220.009 152.44 220.392 150.932 221.547 150.239L222.884 149.433C223.086 149.315 223.294 149.217 223.492 149.164C223.889 149.057 224.313 149.05 224.724 149.153C225.339 149.308 225.895 149.713 226.213 150.267C242.96 178.39 271.99 191.699 300.135 184.158C328.279 176.617 346.766 150.576 347.207 117.846C347.226 117.202 347.485 116.579 347.941 116.138C348.245 115.843 348.615 115.637 349.012 115.531L349.017 115.551Z" fill="#F59220"/>
<path d="M224.131 151.549C241.458 180.646 271.537 194.377 300.773 186.543C330.01 178.709 349.194 151.778 349.65 117.916L351.211 117.945C350.732 152.516 331.109 180.033 301.178 188.053C271.247 196.073 240.495 182.054 222.794 152.354L224.131 151.549Z" fill="#F59220"/>
<path d="M217.117 27.7989C217.435 27.7138 217.788 27.683 218.123 27.7423C218.768 27.8465 219.327 28.1866 219.725 28.7189L220.195 29.3599C230.532 43.5665 245.534 50.0907 259.348 46.3892C273.162 42.6876 282.734 29.6642 284.556 12.3274L284.637 11.5176C284.71 10.8377 285.039 10.2384 285.59 9.83509C285.836 9.64139 286.137 9.49667 286.435 9.4169C286.773 9.32649 287.106 9.30103 287.461 9.35505L288.281 9.47625C303.722 12.0058 309.461 10.9578 318.177 9.34667L319.112 9.18151C319.822 9.05499 320.573 9.23722 321.13 9.72706C321.681 10.197 322.017 10.8951 322 11.624L321.981 12.5875C321.506 48.2867 301.151 76.7239 270.149 85.0311C239.146 93.3382 207.3 78.8881 189.039 48.2094L188.602 47.453C188.253 46.865 188.166 46.1428 188.369 45.4707C188.577 44.8185 189.046 44.2668 189.674 43.992L190.451 43.6348C201.811 38.3968 206.269 35.5835 215.692 28.6708L216.332 28.2011C216.583 28.0273 216.845 27.8932 217.143 27.8134L217.117 27.7989ZM261.015 52.6096C245.493 56.7685 228.808 50.3121 216.939 35.7066C209.775 40.8852 205.029 43.8181 196.431 47.9325C213.401 73.9516 241.404 86.0449 268.457 78.7961C295.51 71.5472 313.572 47.26 315.387 16.3993C308.304 17.5942 302.061 18.0317 290.507 16.3562C287.511 34.7105 276.377 48.4932 260.995 52.6149L261.015 52.6096Z" fill="#F59220"/>
<path d="M217.126 30.608C207.56 37.6228 203.028 40.4773 191.46 45.8135L190.684 46.1707L191.12 46.927C208.822 76.6269 239.579 90.6659 269.51 82.6459C299.441 74.6259 319.063 47.109 319.538 12.5177L319.556 11.5542L318.622 11.7194C309.663 13.3745 303.744 14.4703 287.898 11.8576L287.073 11.7166L286.992 12.5264C285.044 30.8983 274.693 44.748 259.986 48.6888C245.278 52.6297 229.17 45.7844 218.225 30.7395L217.76 30.1184L217.14 30.5828L217.126 30.608ZM288.441 13.5654C303.396 15.9483 309.77 14.9647 317.959 13.452C317.15 46.8761 298.064 73.3761 269.105 81.1355C240.147 88.8949 210.297 75.4647 192.914 46.8724C203.774 41.8324 208.4 38.9314 217.439 32.3345C228.77 47.4678 245.158 54.3234 260.401 50.239C275.644 46.1545 286.237 32.1761 288.46 13.5601L288.441 13.5654Z" fill="#F59220"/>
<path d="M209.663 33.247C210.676 32.9758 211.764 33.387 212.343 34.2757L212.706 34.8386C225.091 53.9069 244.362 62.6312 263.019 57.632C281.677 52.6328 293.109 36.1503 294.264 14.2632L294.298 13.594C294.349 12.5152 295.092 11.6346 296.104 11.3634C296.243 11.3261 296.382 11.2889 296.531 11.2914L297.198 11.2405C299.692 11.0196 301.621 10.9928 303.465 10.9673C305.204 10.9485 306.963 10.9245 309.273 10.7316L310.144 10.6474C310.85 10.5858 311.533 10.829 312.044 11.3096C312.556 11.7902 312.842 12.4592 312.819 13.1682L312.799 14.0469C311.852 45.2076 294.723 69.0104 268.067 76.1528C241.411 83.2953 213.905 70.7497 197.565 44.306L197.109 43.555C196.74 42.9722 196.647 42.2302 196.85 41.5581C197.053 40.886 197.522 40.3343 198.165 40.0343L198.961 39.6718C200.836 38.8074 201.953 37.9755 203.248 37.011C204.631 35.9801 206.191 34.8165 208.694 33.6772L209.297 33.3878C209.43 33.3307 209.564 33.2736 209.703 33.2364L209.663 33.247ZM264.697 63.8922C244.154 69.3966 222.987 60.5839 208.996 40.8385C208.325 41.2737 207.72 41.7129 207.085 42.2025C206.431 42.6973 205.716 43.2082 204.883 43.7509C219.86 65.7457 243.748 75.9807 266.395 69.9125C284.318 65.1101 303.903 48.8073 306.181 17.375C305.294 17.3996 304.447 17.4136 303.575 17.4131C302.643 17.4285 301.641 17.4201 300.505 17.4688C298.338 40.8197 284.758 58.4955 264.711 63.867L264.697 63.8922Z" fill="#F59220"/>
<path d="M209.694 35.901C207.439 36.9314 206.036 37.9676 204.693 38.9879C203.344 39.9883 202.064 40.9276 199.962 41.8956L199.166 42.258L199.622 43.009C215.392 68.519 242.003 80.5803 267.429 73.7676C292.854 66.9549 309.444 43.9994 310.35 13.9572L310.37 13.0785L309.499 13.1628C307.15 13.3663 305.306 13.3918 303.527 13.4212C301.723 13.436 299.834 13.4522 297.425 13.6717L296.758 13.7226L296.724 14.3919C295.523 37.3776 282.852 54.8737 263.679 60.0111C244.506 65.1486 223.655 56.166 210.681 36.1692L210.317 35.6063L209.714 35.8957L209.694 35.901ZM298.228 15.1605C300.269 14.997 301.924 14.9797 303.539 14.973C305.128 14.9517 306.763 14.9397 308.765 14.7868C307.386 49.2584 286.361 67.0971 267.029 72.2771C242.537 78.8398 216.862 67.3369 201.41 42.9346C203.209 42.0266 204.435 41.123 205.621 40.2301C206.827 39.3319 207.979 38.4695 209.749 37.6118C223.129 57.7766 243.878 66.9355 264.084 61.5215C283.753 56.2511 296.789 38.5294 298.248 15.1552L298.228 15.1605Z" fill="#F59220"/>
<path d="M317.349 10.1437C317.567 10.0852 317.796 10.0664 318.03 10.0676L319.591 10.0967C320.937 10.1193 322.023 11.2342 322.001 12.582C321.526 48.2812 301.171 76.7184 270.169 85.0256C239.166 93.3328 207.32 78.8827 189.059 48.2039C188.366 47.0476 188.749 45.5392 189.903 44.8464L191.24 44.0408C191.443 43.9227 191.65 43.8244 191.849 43.7712C192.246 43.6649 192.669 43.6579 193.08 43.7609C193.696 43.9154 194.251 44.3204 194.57 44.8741C211.322 73.0177 240.327 86.3121 268.491 78.7654C296.656 71.2187 315.122 45.1832 315.564 12.4538C315.583 11.8097 315.841 11.1866 316.297 10.7449C316.601 10.4505 316.971 10.2447 317.368 10.1384L317.349 10.1437Z" fill="#F59220"/>
<path d="M192.458 46.1216C209.785 75.2189 239.869 88.9695 269.105 81.1357C298.342 73.3018 317.526 46.3711 317.977 12.4888L319.538 12.5179C319.058 47.0893 299.441 74.6261 269.51 82.6461C239.579 90.6661 208.827 76.647 191.121 46.9272L192.458 46.1216Z" fill="#F59220"/>
<path d="M86.092 62.9073C86.4095 62.8222 86.7629 62.7914 87.0979 62.8507C87.7427 62.9549 88.3019 63.295 88.6998 63.8273L89.1694 64.4683C99.5069 78.6749 114.508 85.1991 128.322 81.4975C142.137 77.796 151.709 64.7726 153.531 47.4358L153.611 46.626C153.684 45.9461 154.013 45.3468 154.565 44.9435C154.811 44.7498 155.112 44.6051 155.41 44.5253C155.747 44.4349 156.081 44.4094 156.436 44.4635L157.255 44.5846C172.697 47.1142 178.436 46.0662 187.152 44.4551L188.086 44.2899C188.797 44.1634 189.548 44.3456 190.104 44.8355C190.656 45.3054 190.992 46.0035 190.974 46.7324L190.956 47.6959C190.481 83.3951 170.126 111.832 139.123 120.139C108.121 128.447 76.2745 113.997 58.0132 83.3178L57.5765 82.5614C57.2275 81.9734 57.1404 81.2512 57.3432 80.5791C57.5514 79.9269 58.0205 79.3752 58.6488 79.1004L59.4253 78.7432C70.7857 73.5052 75.2438 70.6919 84.6663 63.7792L85.3063 63.3095C85.5575 63.1357 85.8194 63.0016 86.1171 62.9218L86.092 62.9073ZM129.989 87.718C114.468 91.8769 97.783 85.4205 85.9133 70.815C78.7491 75.9936 74.004 78.9265 65.4059 83.0409C82.3761 109.06 110.378 121.153 137.431 113.904C164.484 106.656 182.547 82.3684 184.361 51.5077C177.279 52.7026 171.035 53.1401 159.482 51.4646C156.486 69.8189 145.352 83.6016 129.969 87.7233L129.989 87.718Z" fill="#F59220"/>
<path d="M86.1004 65.7164C76.535 72.7312 72.0029 75.5857 60.4348 80.9219L59.6583 81.2791L60.095 82.0354C77.7962 111.735 108.554 125.774 138.484 117.754C168.415 109.734 188.038 82.2174 188.512 47.6261L188.531 46.6626L187.596 46.8278C178.637 48.4829 172.719 49.5787 156.872 46.966L156.048 46.825L155.967 47.6348C154.018 66.0067 143.668 79.8563 128.96 83.7972C114.253 87.7381 98.1443 80.8928 87.1993 65.8479L86.735 65.2268L86.1149 65.6912L86.1004 65.7164ZM157.415 48.6738C172.37 51.0567 178.744 50.0731 186.933 48.5604C186.125 81.9845 167.038 108.484 138.08 116.244C109.121 124.003 79.2717 110.573 61.8886 81.9808C72.7489 76.9408 77.375 74.0398 86.4141 67.4429C97.7445 82.5762 114.132 89.4318 129.376 85.3474C144.619 81.2629 155.212 67.2845 157.435 48.6685L157.415 48.6738Z" fill="#F59220"/>
<path d="M78.6379 68.3554C79.6502 68.0842 80.7389 68.4954 81.3174 69.3841L81.681 69.947C94.0658 89.0153 113.337 97.7396 131.994 92.7404C150.651 87.7412 162.083 71.2587 163.239 49.3716L163.272 48.7024C163.324 47.6236 164.066 46.743 165.078 46.4718C165.217 46.4345 165.356 46.3973 165.506 46.3998L166.173 46.3489C168.667 46.128 170.595 46.1012 172.439 46.0757C174.179 46.0569 175.938 46.0329 178.247 45.84L179.118 45.7558C179.825 45.6942 180.507 45.9374 181.019 46.418C181.531 46.8986 181.816 47.5676 181.793 48.2766L181.774 49.1553C180.827 80.316 163.698 104.119 137.042 111.261C110.386 118.404 82.8792 105.858 66.5398 79.4144L66.0833 78.6634C65.7144 78.0806 65.6219 77.3386 65.8248 76.6665C66.0276 75.9944 66.4967 75.4427 67.1396 75.1427L67.9359 74.7802C69.8104 73.9158 70.9277 73.0839 72.2221 72.1194C73.6052 71.0885 75.1655 69.9249 77.6683 68.7856L78.2715 68.4962C78.4051 68.4391 78.5387 68.382 78.6776 68.3448L78.6379 68.3554ZM133.671 99.0006C113.129 104.505 91.9619 95.6923 77.9704 75.9469C77.2999 76.3821 76.6943 76.8213 76.0596 77.3109C75.4051 77.8057 74.6911 78.3166 73.8579 78.8593C88.8351 100.854 112.723 111.089 135.37 105.021C153.293 100.218 172.878 83.9157 175.156 52.4834C174.269 52.508 173.422 52.522 172.55 52.5215C171.618 52.5369 170.616 52.5285 169.48 52.5772C167.313 75.9281 153.733 93.6039 133.686 98.9754L133.671 99.0006Z" fill="#F59220"/>
<path d="M78.6689 71.0094C76.4135 72.0398 75.0106 73.076 73.6672 74.0963C72.3185 75.0967 71.0386 76.036 68.9366 77.004L68.1402 77.3664L68.5967 78.1174C84.3668 103.627 110.978 115.689 136.403 108.876C161.829 102.063 178.419 79.1078 179.325 49.0656L179.345 48.1869L178.474 48.2712C176.125 48.4747 174.281 48.5002 172.502 48.5296C170.697 48.5444 168.808 48.5606 166.4 48.7801L165.732 48.831L165.699 49.5003C164.498 72.486 151.827 89.9821 132.653 95.1195C113.48 100.257 92.6295 91.2744 79.6555 71.2776L79.292 70.7147L78.6888 71.0041L78.6689 71.0094ZM167.203 50.2689C169.244 50.1054 170.898 50.0881 172.513 50.0814C174.103 50.0601 175.738 50.0481 177.739 49.8952C176.36 84.3668 155.336 102.205 136.004 107.385C111.511 113.948 85.8371 102.445 70.385 78.043C72.1839 77.1349 73.4097 76.2314 74.5957 75.3385C75.8016 74.4403 76.9533 73.5779 78.7232 72.7202C92.1037 92.885 112.853 102.044 133.058 96.6299C152.728 91.3595 165.763 73.6378 167.223 50.2636L167.203 50.2689Z" fill="#F59220"/>
<path d="M186.323 45.2521C186.542 45.1936 186.771 45.1748 187.005 45.176L188.566 45.2051C189.912 45.2277 190.998 46.3426 190.976 47.6904C190.501 83.3896 170.146 111.827 139.143 120.134C108.141 128.441 76.2945 113.991 58.0332 83.3123C57.3404 82.156 57.7234 80.6476 58.8779 79.9548L60.215 79.1492C60.4174 79.0311 60.6251 78.9328 60.8235 78.8796C61.2205 78.7733 61.6441 78.7663 62.0546 78.8693C62.6704 79.0238 63.2256 79.4288 63.5442 79.9825C80.2965 108.126 109.301 121.42 137.466 113.874C165.63 106.327 184.097 80.2916 184.538 47.5622C184.557 46.9181 184.816 46.295 185.272 45.8533C185.576 45.5589 185.946 45.3531 186.343 45.2468L186.323 45.2521Z" fill="#F59220"/>
<path d="M61.4323 81.23C78.7593 110.327 108.844 124.078 138.08 116.244C167.316 108.41 186.5 81.4795 186.952 47.5972L188.513 47.6263C188.033 82.1977 168.416 109.734 138.485 117.754C108.554 125.774 77.8017 111.755 60.0952 82.0356L61.4323 81.23Z" fill="#F59220"/>
<path d="M32.5231 133.366C32.8406 133.281 33.194 133.25 33.529 133.309C34.1739 133.413 34.7582 133.768 35.1309 134.286L35.6005 134.927C45.938 149.133 60.9393 155.657 74.7536 151.956C88.5679 148.254 98.14 135.231 99.9617 117.894L100.043 117.084C100.116 116.404 100.464 115.8 100.996 115.402C101.261 115.203 101.543 115.063 101.841 114.984C102.178 114.893 102.512 114.868 102.867 114.922L103.686 115.043C119.108 117.578 124.867 116.525 133.563 114.919L134.517 114.748C135.228 114.622 135.979 114.804 136.53 115.274C137.082 115.744 137.417 116.442 137.4 117.171L137.382 118.134C136.886 153.839 116.552 182.271 85.5491 190.578C54.5463 198.885 22.7002 184.435 4.43897 153.756L3.9878 153.025C3.63876 152.437 3.55162 151.715 3.75446 151.043C3.9573 150.371 4.43171 149.839 5.07459 149.539L5.87093 149.176C17.2313 143.938 21.6894 141.125 31.1119 134.212L31.7519 133.743C32.0031 133.569 32.2651 133.435 32.5628 133.355L32.5231 133.366ZM76.4257 158.196C60.9045 162.355 44.2195 155.899 32.3498 141.293C25.1856 146.472 20.4404 149.405 11.8423 153.519C28.8125 179.538 56.8148 191.632 83.8678 184.383C110.921 177.134 128.984 152.847 130.798 121.986C123.715 123.181 117.472 123.618 105.918 121.943C102.922 140.297 91.7882 154.08 76.4257 158.196Z" fill="#F59220"/>
<path d="M32.5369 136.195C22.9769 143.23 18.4394 146.064 6.87669 151.42L6.08035 151.783L6.53688 152.534C24.2182 182.239 54.9901 196.253 84.921 188.233C114.852 180.213 134.474 152.696 134.954 118.124L134.973 117.161L134.038 117.326C125.079 118.981 119.161 120.077 103.314 117.464L102.489 117.323L102.409 118.133C100.455 136.485 90.1096 150.355 75.4021 154.296C60.6947 158.236 44.5862 151.391 33.6412 136.346L33.1716 135.705L32.5514 136.17L32.5369 136.195ZM103.852 119.152C118.807 121.535 125.181 120.552 133.37 119.039C132.561 152.463 113.475 178.963 84.5163 186.722C55.5579 194.482 25.7082 181.052 8.32513 152.459C19.1854 147.419 23.8115 144.518 32.8453 137.901C44.1757 153.035 60.5688 159.91 75.8121 155.826C90.9364 151.773 101.648 137.763 103.872 119.147L103.852 119.152Z" fill="#F59220"/>
<path d="M25.0751 138.833C26.0874 138.562 27.1761 138.973 27.7546 139.862L28.1182 140.425C40.503 159.493 59.7794 168.237 78.4366 163.238C97.0939 158.239 108.526 141.756 109.681 119.869L109.715 119.2C109.766 118.121 110.509 117.24 111.521 116.969C111.66 116.932 111.799 116.895 111.948 116.897L112.616 116.846C115.109 116.625 117.018 116.604 118.882 116.573C120.641 116.549 122.405 116.545 124.71 116.332L125.581 116.248C126.288 116.186 126.97 116.43 127.481 116.91C127.993 117.391 128.259 118.065 128.256 118.769L128.236 119.647C127.309 150.803 110.155 174.591 83.5187 181.728C56.8826 188.865 29.3561 176.325 13.0167 149.881L12.5602 149.13C12.1913 148.548 12.0989 147.805 12.3017 147.133C12.5045 146.461 12.9736 145.91 13.6165 145.61L14.4128 145.247C16.2873 144.383 17.4046 143.551 18.699 142.586C20.102 141.55 21.6622 140.386 24.1452 139.253L24.7484 138.963C24.882 138.906 25.0156 138.849 25.1545 138.812L25.0751 138.833ZM80.1087 169.478C59.5659 174.983 38.3991 166.17 24.4076 146.424C23.7371 146.86 23.1513 147.294 22.5113 147.763C21.837 148.263 21.1283 148.794 20.2952 149.337C35.2723 171.332 59.1602 181.567 81.8069 175.498C99.7298 170.696 119.315 154.393 121.593 122.961C120.706 122.986 119.859 123 118.987 122.999C117.945 123.001 116.973 123.027 115.917 123.055C113.75 146.406 100.17 164.081 80.1232 169.453L80.1087 169.478Z" fill="#F59220"/>
<path d="M25.0855 141.492C22.83 142.523 21.4523 143.574 20.0838 144.579C18.7351 145.58 17.4551 146.519 15.3585 147.507L14.5621 147.869L15.0186 148.62C30.7834 174.11 57.3997 186.192 82.8252 179.379C108.39 172.529 124.841 149.611 125.747 119.569L125.767 118.69L124.896 118.774C122.547 118.978 120.703 119.003 118.924 119.032C117.119 119.047 115.23 119.064 112.821 119.283L112.154 119.334L112.121 120.003C110.919 142.989 98.2486 160.485 79.0753 165.622C59.902 170.76 39.0513 161.777 26.0774 141.78L25.7138 141.218L25.1107 141.507L25.0855 141.492ZM113.619 120.752C115.66 120.589 117.315 120.571 118.93 120.564C120.52 120.543 122.154 120.531 124.156 120.378C122.777 154.85 101.747 172.669 82.4151 177.849C57.9226 184.411 32.2483 172.908 16.7962 148.506C18.5951 147.598 19.8209 146.695 21.0069 145.802C22.2128 144.903 23.3645 144.041 25.1291 143.164C38.5096 163.328 59.264 172.507 79.4694 167.093C99.1389 161.823 112.175 144.101 113.634 120.727L113.619 120.752Z" fill="#F59220"/>
<path d="M7.22067 149.368C7.61764 149.262 8.04123 149.255 8.45175 149.358C9.06752 149.513 9.62278 149.918 9.94132 150.471C26.6937 178.615 55.7184 191.904 83.8631 184.363C112.008 176.821 130.494 150.78 130.935 118.051C130.954 117.407 131.213 116.784 131.669 116.342C131.973 116.048 132.343 115.842 132.74 115.735C132.959 115.677 133.188 115.658 133.422 115.659L134.983 115.688C136.329 115.711 137.415 116.826 137.393 118.174C136.918 153.873 116.563 182.31 85.5603 190.617C54.5575 198.925 22.7115 184.474 4.45017 153.796C3.75742 152.639 4.14036 151.131 5.29494 150.438L6.63201 149.633C6.83437 149.514 7.04205 149.416 7.26038 149.358L7.22067 149.368Z" fill="#F59220"/>
<path d="M133.374 118.1L134.935 118.13C134.455 152.701 114.833 180.218 84.9017 188.238C54.9707 196.258 24.2187 182.239 6.51752 152.539L7.8546 151.733C25.1816 180.831 55.2607 194.561 84.497 186.727C113.733 178.894 132.917 151.963 133.374 118.1Z" fill="#F59220"/>
<path d="M297.833 62.2763C298.151 62.1912 298.504 62.1604 298.839 62.2198C299.484 62.3239 300.068 62.6785 300.441 63.1964L300.91 63.8374C311.248 78.044 326.249 84.5681 340.063 80.8666C353.878 77.1651 363.45 64.1417 365.272 46.8049L365.352 45.9951C365.425 45.3152 365.754 44.7159 366.306 44.3125C366.552 44.1188 366.853 43.9741 367.151 43.8943C367.488 43.8039 367.822 43.7785 368.177 43.8325L368.996 43.9537C384.418 46.4886 390.177 45.4353 398.873 43.8294L399.807 43.6643C400.518 43.5378 401.269 43.72 401.82 44.19C402.372 44.6599 402.708 45.358 402.69 46.0869L402.672 47.0504C402.177 82.7549 381.842 111.187 350.839 119.494C319.836 127.801 287.99 113.351 269.729 82.6723L269.292 81.9159C268.943 81.3279 268.856 80.6057 269.059 79.9336C269.267 79.2814 269.736 78.7297 270.379 78.4297L271.175 78.0672C282.556 72.8239 286.994 70.0158 296.416 63.1032L297.037 62.6388C297.288 62.465 297.57 62.3256 297.847 62.2511L297.833 62.2763ZM341.736 87.1069C326.214 91.2658 309.524 84.7895 297.68 70.1986C290.495 75.3826 285.75 78.3155 277.172 82.4245C294.142 108.444 322.145 120.537 349.198 113.288C376.251 106.039 394.288 81.7374 396.108 50.8966C389.025 52.0915 382.762 52.5344 371.228 50.8535C368.232 69.2078 357.098 82.9906 341.736 87.1069Z" fill="#F59220"/>
<path d="M297.846 65.106C288.286 72.1407 283.749 74.9754 272.186 80.3315L271.41 80.6886L271.846 81.4449C289.548 111.145 320.3 125.164 350.231 117.144C380.162 109.124 399.784 81.6071 400.258 47.0157L400.277 46.0523L399.343 46.2174C390.383 47.8725 384.465 48.9684 368.619 46.3557L367.794 46.2146L367.713 47.0244C365.764 65.3963 355.414 79.246 340.706 83.1869C325.999 87.1277 309.89 80.2825 298.945 65.2376L298.476 64.5966L297.856 65.061L297.846 65.106ZM369.161 48.0634C384.117 50.4463 390.51 49.4574 398.679 47.9501C397.871 81.3742 378.784 107.874 349.826 115.634C320.867 123.393 291.018 109.963 273.615 81.3758C284.475 76.3357 289.101 73.4347 298.135 66.8179C309.465 81.9513 325.859 88.8268 341.102 84.7423C356.226 80.6898 366.938 66.6794 369.161 48.0634Z" fill="#F59220"/>
<path d="M290.385 67.7447C291.397 67.4735 292.48 67.8648 293.064 68.7734L293.428 69.3363C305.812 88.4046 325.083 97.1289 343.746 92.1496C361.867 87.294 373.835 70.6679 374.991 48.7808L375.024 48.1116C375.076 47.0328 375.818 46.1522 376.83 45.881C376.969 45.8437 377.108 45.8065 377.258 45.809L377.925 45.7581C380.419 45.5372 382.327 45.5157 384.171 45.4902C385.931 45.4661 387.695 45.4619 389.999 45.2492L390.87 45.1649C391.577 45.1034 392.259 45.3466 392.771 45.8272C393.283 46.3078 393.568 46.9768 393.545 47.6858L393.526 48.5645C392.579 79.7252 375.45 103.528 348.794 110.67C322.138 117.813 294.631 105.267 278.292 78.8236L277.835 78.0726C277.461 77.4699 277.374 76.7478 277.577 76.0757C277.78 75.4036 278.249 74.8519 278.892 74.5519L279.688 74.1894C281.562 73.325 282.68 72.4931 283.974 71.5285C285.377 70.4923 286.957 69.3234 289.42 68.1948L290.023 67.9054C290.157 67.8483 290.291 67.7912 290.43 67.754L290.385 67.7447ZM345.418 98.3899C324.855 103.9 303.708 95.0816 289.717 75.3362C289.047 75.7714 288.461 76.2053 287.801 76.6803C287.127 77.1805 286.418 77.7112 285.585 78.254C300.562 100.249 324.45 110.484 347.097 104.416C365.019 99.6131 384.605 83.3103 386.883 51.878C385.936 51.9186 385.064 51.9181 384.276 51.9161C383.235 51.9183 382.263 51.9444 381.207 51.9718C379.039 75.3228 365.459 92.9986 345.413 98.37L345.418 98.3899Z" fill="#F59220"/>
<path d="M290.416 70.3987C288.16 71.4291 286.763 72.4852 285.414 73.4856C284.065 74.486 282.785 75.4253 280.689 76.4131L279.892 76.7756L280.349 77.5266C296.113 103.017 322.73 115.098 348.155 108.285C373.581 101.472 390.171 78.517 391.077 48.4748L391.097 47.5961L390.226 47.6804C387.877 47.8839 386.033 47.9093 384.254 47.9387C382.449 47.9536 380.56 47.9698 378.152 48.1893L377.484 48.2402L377.451 48.9095C376.25 71.8952 363.579 89.3912 344.405 94.5287C324.696 99.8098 304.381 90.6835 291.407 70.6867L291.044 70.1238L290.441 70.4133L290.416 70.3987ZM378.949 49.6582C380.99 49.4948 382.645 49.4774 384.26 49.4707C385.85 49.4494 387.484 49.4374 389.486 49.2845C388.107 83.7561 367.077 101.575 347.745 106.755C323.253 113.318 297.578 101.815 282.126 77.4124C283.925 76.5044 285.151 75.6008 286.337 74.7079C287.543 73.8097 288.695 72.9473 290.459 72.0698C303.84 92.2345 324.589 101.393 344.78 96.0047C364.449 90.7342 377.485 73.0126 378.944 49.6383L378.949 49.6582Z" fill="#F59220"/>
<path d="M398.07 44.6413C398.288 44.5828 398.517 44.5641 398.731 44.5705L400.292 44.5996C401.638 44.6223 402.724 45.7372 402.702 47.0849C402.227 82.7842 381.873 111.221 350.87 119.529C319.867 127.836 288.021 113.386 269.76 82.7068C269.067 81.5505 269.45 80.0421 270.605 79.3493L271.942 78.5437C272.144 78.4256 272.352 78.3273 272.57 78.2688C272.967 78.1625 273.391 78.1555 273.801 78.2585C274.417 78.413 274.972 78.818 275.291 79.3717C292.043 107.515 321.068 120.804 349.212 113.263C377.357 105.722 395.809 79.7113 396.245 46.962C396.264 46.318 396.522 45.6949 396.978 45.2532C397.282 44.9587 397.653 44.753 398.05 44.6466L398.07 44.6413Z" fill="#F59220"/>
<path d="M273.164 80.6449C290.491 109.742 320.57 123.473 349.806 115.639C379.043 107.805 398.246 80.8691 398.703 47.0067L400.264 47.0358C399.784 81.6073 380.162 109.124 350.231 117.144C320.3 125.164 289.528 111.15 271.847 81.4451L273.184 80.6396L273.164 80.6449Z" fill="#F59220"/>
<path d="M165.882 97.6321C166.2 97.547 166.553 97.5162 166.888 97.5756C167.533 97.6797 168.117 98.0344 168.49 98.5522L168.96 99.1932C179.297 113.4 194.298 119.924 208.113 116.222C221.927 112.521 231.499 99.4975 233.321 82.1607L233.416 81.3257C233.495 80.6657 233.838 80.0412 234.369 79.6432C234.615 79.4495 234.917 79.3047 235.215 79.225C235.552 79.1346 235.886 79.1091 236.246 79.183L237.045 79.3095C252.467 81.8444 258.221 80.7712 266.917 79.1654L267.851 79.0002C268.562 78.8737 269.313 79.0559 269.864 79.5259C270.416 79.9959 270.751 80.694 270.734 81.4228L270.716 82.3863C270.22 118.091 249.886 146.523 218.863 154.835C187.841 163.148 156.014 148.692 137.753 118.014L137.316 117.257C136.967 116.669 136.88 115.947 137.083 115.275C137.291 114.623 137.76 114.071 138.403 113.771L139.2 113.408C150.58 108.165 155.018 105.357 164.441 98.4444L165.061 97.9801C165.312 97.8062 165.594 97.6668 165.872 97.5924L165.882 97.6321ZM209.785 122.463C194.264 126.622 177.573 120.145 165.729 105.554C158.545 110.738 153.8 113.671 145.221 117.78C162.191 143.799 190.194 155.893 217.247 148.644C244.3 141.395 262.363 117.108 264.177 86.2471C257.094 87.442 250.831 87.8849 239.297 86.204C236.301 104.558 225.167 118.341 209.785 122.463Z" fill="#F59220"/>
<path d="M165.896 100.461C156.336 107.496 151.799 110.331 140.236 115.687L139.46 116.044L139.896 116.8C157.597 146.5 188.349 160.519 218.28 152.499C248.211 144.479 267.834 116.963 268.314 82.3911L268.332 81.4276L267.398 81.5928C258.438 83.2479 252.52 84.3437 236.674 81.731L235.849 81.59L235.768 82.3997C233.819 100.772 223.469 114.621 208.761 118.562C194.054 122.503 177.946 115.658 167.001 100.613L166.531 99.9719L165.911 100.436L165.896 100.461ZM237.211 83.4189C252.166 85.8018 258.56 84.8129 266.729 83.3055C265.921 116.73 246.834 143.23 217.876 150.989C188.917 158.748 159.068 145.318 141.685 116.726C152.545 111.686 157.171 108.785 166.205 102.168C177.535 117.301 193.928 124.177 209.172 120.092C224.296 116.04 235.007 102.03 237.231 83.4136L237.211 83.4189Z" fill="#F59220"/>
<path d="M158.435 103.101C159.427 102.835 160.53 103.221 161.114 104.129L161.478 104.692C173.862 123.76 193.139 132.505 211.796 127.505C229.917 122.65 241.885 106.024 243.041 84.1367L243.074 83.4674C243.125 82.3886 243.868 81.508 244.88 81.2368C245.019 81.1996 245.158 81.1623 245.308 81.1648L245.975 81.1139C248.463 80.8732 250.377 80.8715 252.221 80.846C253.98 80.822 255.765 80.8124 258.069 80.5997L258.94 80.5155C259.647 80.4539 260.329 80.6971 260.841 81.1777C261.352 81.6583 261.618 82.3326 261.615 83.0363L261.595 83.915C260.649 115.076 243.514 138.859 216.878 145.996C190.242 153.133 162.715 140.593 146.376 114.149L145.92 113.398C145.545 112.795 145.458 112.073 145.661 111.401C145.864 110.729 146.333 110.177 146.976 109.877L147.772 109.515C149.647 108.65 150.764 107.818 152.058 106.854C153.461 105.818 155.041 104.649 157.505 103.52L158.108 103.231C158.241 103.174 158.375 103.117 158.514 103.079L158.435 103.101ZM213.468 133.746C192.905 139.255 171.758 130.437 157.767 110.692C157.096 111.127 156.511 111.561 155.851 112.036C155.177 112.536 154.468 113.067 153.635 113.61C168.612 135.605 192.5 145.84 215.146 139.771C233.069 134.969 252.655 118.666 254.933 87.2339C253.986 87.2745 253.114 87.2739 252.326 87.2719C251.285 87.2742 250.313 87.3002 249.257 87.3276C247.089 110.679 233.509 128.354 213.463 133.726L213.468 133.746Z" fill="#F59220"/>
<path d="M158.464 105.754C156.209 106.785 154.811 107.841 153.463 108.841C152.114 109.841 150.834 110.781 148.737 111.769L147.941 112.131L148.398 112.882C164.162 138.372 190.779 150.453 216.204 143.641C241.63 136.828 258.22 113.872 259.126 83.8302L259.146 82.9516L258.275 83.0358C255.925 83.2393 254.082 83.2648 252.302 83.2942C250.498 83.309 248.609 83.3253 246.2 83.5447L245.533 83.5957L245.5 84.2649C244.298 107.251 231.628 124.747 212.454 129.884C192.745 135.165 172.43 126.039 159.456 106.042L159.093 105.479L158.49 105.769L158.464 105.754ZM246.998 85.0137C249.039 84.8502 250.694 84.8329 252.309 84.8262C253.899 84.8049 255.533 84.7928 257.535 84.64C256.156 119.112 235.126 136.93 215.794 142.11C191.301 148.673 165.627 137.17 150.175 112.768C151.974 111.86 153.2 110.956 154.386 110.063C155.592 109.165 156.743 108.303 158.508 107.425C171.889 127.59 192.638 136.749 212.828 131.36C232.498 126.09 245.534 108.368 246.993 84.9938L246.998 85.0137Z" fill="#F59220"/>
<path d="M266.119 79.9968C266.338 79.9383 266.567 79.9195 266.781 79.926L268.342 79.9551C269.688 79.9777 270.774 81.0926 270.752 82.4404C270.277 118.14 249.922 146.577 218.92 154.884C187.917 163.191 156.071 148.741 137.81 118.062C137.117 116.906 137.5 115.398 138.654 114.705L139.991 113.899C140.194 113.781 140.401 113.683 140.62 113.624C141.017 113.518 141.44 113.511 141.851 113.614C142.467 113.768 143.022 114.174 143.34 114.727C160.093 142.871 189.118 156.16 217.262 148.618C245.407 141.077 263.893 115.036 264.335 82.3069C264.353 81.6628 264.612 81.0397 265.068 80.598C265.372 80.3036 265.742 80.0978 266.139 79.9915L266.119 79.9968Z" fill="#F59220"/>
<path d="M141.234 115.995C158.56 145.092 188.64 158.823 217.876 150.989C247.112 143.155 266.296 116.225 266.753 82.3622L268.314 82.3913C267.834 116.963 248.212 144.48 218.281 152.5C188.35 160.52 157.598 146.501 139.896 116.801L141.234 115.995Z" fill="#F59220"/>
</svg>
