<svg width="328" height="156" viewBox="0 0 328 156" fill="none" xmlns="http://www.w3.org/2000/svg">
<rect width="328" height="156" rx="20" fill="white"/>
<path d="M84.5071 76.4831C93.5217 79.1521 97.0651 82.4938 96.5079 87.8537C96.3522 89.456 95.7615 90.9867 94.7983 92.2837C93.8351 93.5807 92.5354 94.5956 91.0368 95.2209C89.1794 96.0057 87.172 96.382 85.1534 96.3238C82.3794 96.2805 79.6487 95.6368 77.1528 94.4379C76.0055 93.8415 74.9195 93.136 73.9102 92.3314C73.4311 91.9344 73.3754 91.6697 73.6985 91.2285L74.3002 90.3242L74.9354 89.3757C75.3254 88.8022 75.7265 88.8022 76.2837 89.1882L76.4842 89.3316L76.6848 89.4749C79.1093 91.3283 82.0586 92.385 85.1199 92.4969C89.1425 92.3756 91.9728 90.5889 92.4296 87.931C92.9311 85.0194 90.5019 82.5158 85.7439 81.1372C83.5911 80.4794 81.4811 79.6912 79.4259 78.7771C75.8602 76.8029 74.1331 74.123 74.3225 70.7923C74.6011 66.1823 78.8799 62.6751 84.3511 62.5538C86.7855 62.5176 89.2027 62.9638 91.4602 63.8662C92.4398 64.2674 93.383 64.7507 94.2794 65.311C94.8922 65.7411 94.8922 66.0279 94.5914 66.5903L93.9785 67.4726L93.3768 68.3328C93.3218 68.4447 93.241 68.5422 93.141 68.6175C93.0409 68.6928 92.9244 68.7437 92.8008 68.7663C92.6772 68.7888 92.5499 68.7823 92.4293 68.7472C92.3087 68.7122 92.1982 68.6496 92.1065 68.5645C89.8458 67.1006 87.1973 66.333 84.4959 66.3587C81.0974 66.48 78.6014 68.4762 78.4788 71.1231C78.4788 73.5053 80.3954 75.2369 84.5405 76.5603" fill="#ED4D2D"/>
<path d="M109.534 75.1487C112.169 75.1484 114.698 76.1745 116.574 78.0051C118.451 79.8356 119.524 82.3236 119.562 84.9312V95.4527C119.562 96.0592 119.406 96.2026 118.805 96.2026H116.275C115.662 96.2026 115.518 96.0592 115.518 95.4527V84.9643C115.518 83.3848 114.884 81.87 113.755 80.7531C112.627 79.6362 111.096 79.0088 109.501 79.0088C107.905 79.0088 106.374 79.6362 105.246 80.7531C104.117 81.87 103.483 83.3848 103.483 84.9643V95.4747C103.483 95.993 103.272 96.2246 102.726 96.2246H100.196C99.5945 96.2246 99.4385 96.0041 99.4385 95.4747V63.2597C99.4385 62.7083 99.5945 62.5098 100.196 62.5098H102.714C103.26 62.5098 103.472 62.7193 103.472 63.2597V77.1119C105.213 75.8361 107.323 75.1478 109.489 75.1487" fill="#ED4D2D"/>
<path d="M133.19 75.1714C131.088 75.2126 129.045 75.8672 127.318 77.0529C125.59 78.2387 124.255 79.9029 123.48 81.8367C122.704 83.7706 122.523 85.8881 122.958 87.9236C123.394 89.9591 124.427 91.8221 125.928 93.2788C127.429 94.7355 129.331 95.7211 131.395 96.1121C133.46 96.5031 135.596 96.282 137.534 95.4765C139.472 94.6711 141.127 93.3171 142.291 91.5844C143.455 89.8518 144.076 87.8176 144.076 85.7369C144.047 82.9074 142.884 80.2052 140.842 78.224C138.801 76.2429 136.048 75.1449 133.19 75.1714ZM133.19 92.4093C131.861 92.3811 130.57 91.9652 129.478 91.2139C128.387 90.4625 127.544 89.4092 127.055 88.1857C126.566 86.9623 126.453 85.6232 126.73 84.3363C127.007 83.0494 127.661 81.872 128.611 80.9516C129.561 80.0312 130.764 79.4088 132.07 79.1623C133.375 78.9158 134.726 79.0563 135.951 79.5661C137.176 80.0759 138.223 80.9323 138.958 82.0281C139.694 83.1238 140.087 84.4102 140.087 85.7259C140.078 86.6132 139.893 87.4901 139.541 88.3064C139.19 89.1228 138.679 89.8624 138.039 90.4832C137.398 91.1039 136.64 91.5936 135.808 91.9241C134.976 92.2546 134.086 92.4195 133.19 92.4093Z" fill="#ED4D2D"/>
<path d="M157.871 75.1155C155.402 75.1103 153.008 75.9522 151.096 77.4977V75.8655C151.096 75.303 150.94 75.1155 150.338 75.1155H147.932C147.33 75.1155 147.174 75.281 147.174 75.8655V106.25C147.174 106.801 147.33 107 147.932 107H150.338C150.94 107 151.096 106.801 151.096 106.25V93.8534C152.42 94.93 153.986 95.6757 155.663 96.0275C157.339 96.3794 159.076 96.327 160.728 95.875C162.379 95.423 163.897 94.5845 165.152 93.4302C166.408 92.276 167.364 90.8398 167.941 89.2428C168.518 87.6459 168.699 85.9349 168.468 84.2544C168.237 82.5739 167.601 80.9731 166.613 79.5869C165.626 78.2007 164.316 77.0699 162.795 76.2898C161.273 75.5096 159.585 75.1031 157.871 75.1045M157.871 92.3424C156.109 92.3431 154.417 91.6636 153.154 90.4484C151.891 89.2332 151.157 87.5782 151.107 85.8354V85.4936C151.138 84.1739 151.562 82.8925 152.325 81.8101C153.088 80.7277 154.157 79.8923 155.398 79.4087C156.639 78.9251 157.997 78.8148 159.301 79.0916C160.605 79.3684 161.797 80.02 162.729 80.9647C163.66 81.9094 164.289 83.1053 164.537 84.4023C164.785 85.6994 164.64 87.04 164.122 88.2561C163.603 89.4722 162.733 90.5097 161.621 91.2385C160.509 91.9674 159.205 92.3553 157.871 92.3535" fill="#ED4D2D"/>
<path d="M191.1 87.1484H191.155C191.48 87.1286 191.786 86.986 192.007 86.75C192.229 86.5139 192.351 86.2025 192.348 85.8801C192.348 85.8801 192.348 85.8139 192.348 85.7919C192.348 85.7698 192.348 85.7919 192.348 85.7147C192.393 84.3446 192.16 82.9794 191.661 81.7004C191.163 80.4213 190.41 79.2545 189.447 78.2694C188.484 77.2843 187.33 76.5009 186.055 75.9659C184.78 75.431 183.409 75.1553 182.024 75.1553C180.639 75.1553 179.268 75.431 177.993 75.9659C176.717 76.5009 175.564 77.2843 174.601 78.2694C173.638 79.2545 172.885 80.4213 172.386 81.7004C171.888 82.9794 171.654 84.3446 171.7 85.7147C171.7 86.1496 171.726 86.5842 171.778 87.0161V87.1594C172.055 89.2404 172.969 91.1877 174.397 92.74C176.018 94.4722 178.165 95.6338 180.514 96.0486H180.703H180.982C183.798 96.4573 186.674 96.0233 189.239 94.8023C189.786 94.5326 190.308 94.2152 190.799 93.8539L191.189 93.5341L191.323 93.4127C191.902 92.8282 191.924 92.5635 191.579 92.0341C190.777 90.7768 190.331 90.1592 190.331 90.1592C190.019 89.7732 189.74 89.685 189.339 90.0269L189.172 90.1703C188.05 91.1106 186.719 91.7763 185.289 92.1135C183.858 92.4507 182.368 92.45 180.937 92.1113C180.398 91.9713 179.872 91.783 179.366 91.5489C178.461 91.1166 177.667 90.4856 177.045 89.704C176.424 88.9223 175.99 88.0106 175.778 87.0381H191.077M176.023 83.167C176.422 81.9149 177.219 80.8239 178.295 80.0567C179.372 79.2895 180.67 78.8873 181.996 78.9099C183.325 78.9315 184.617 79.3493 185.702 80.1088C186.787 80.8683 187.616 81.9341 188.08 83.167H176.023Z" fill="#ED4D2D"/>
<path d="M214.478 87.1484H214.533C214.858 87.1286 215.163 86.986 215.385 86.75C215.607 86.5139 215.729 86.2025 215.726 85.8801C215.726 85.8801 215.726 85.8139 215.726 85.7919C215.726 85.7698 215.726 85.7919 215.726 85.7147C215.771 84.3446 215.538 82.9794 215.039 81.7004C214.541 80.4213 213.788 79.2545 212.825 78.2694C211.862 77.2843 210.708 76.5009 209.433 75.9659C208.158 75.431 206.787 75.1553 205.402 75.1553C204.017 75.1553 202.646 75.431 201.371 75.9659C200.095 76.5009 198.942 77.2843 197.979 78.2694C197.016 79.2545 196.262 80.4213 195.764 81.7004C195.266 82.9794 195.032 84.3446 195.078 85.7147C195.078 86.1496 195.104 86.5842 195.156 87.0161V87.1594C195.433 89.2404 196.347 91.1877 197.774 92.74C199.396 94.4722 201.543 95.6338 203.892 96.0486H204.081H204.36C207.176 96.4573 210.052 96.0233 212.617 94.8023C213.164 94.5323 213.686 94.2149 214.177 93.8539L214.567 93.5341L214.7 93.4127C215.28 92.8282 215.302 92.5635 214.957 92.0341C214.154 90.7768 213.709 90.1592 213.709 90.1592C213.397 89.7732 213.118 89.685 212.717 90.0269L212.55 90.1703C211.427 91.1106 210.097 91.7763 208.667 92.1135C207.236 92.4507 205.745 92.45 204.315 92.1113C203.775 91.9714 203.25 91.7832 202.744 91.5489C201.838 91.1173 201.044 90.4866 200.422 89.7048C199.8 88.923 199.367 88.0109 199.156 87.0381H214.478M199.424 83.167C199.822 81.9149 200.619 80.8239 201.695 80.0567C202.772 79.2895 204.07 78.8873 205.396 78.9099C206.725 78.9315 208.017 79.3493 209.102 80.1088C210.188 80.8683 211.016 81.9341 211.48 83.167H199.424Z" fill="#ED4D2D"/>
<path d="M221.263 96.2472H227.48V83.2773H243.415V77.0902H227.48V69.4252H243.927V63.2822H221.263V96.2472Z" fill="#ED4D2D"/>
<path d="M257.6 73.2522C254.469 73.2639 251.465 74.4869 249.232 76.6601C247.025 78.9036 245.79 81.9108 245.789 85.0419C245.809 88.1695 247.041 91.1701 249.232 93.4238C251.459 95.6122 254.463 96.8512 257.6 96.8758C259.15 96.8794 260.686 96.5759 262.115 95.983C263.545 95.3901 264.84 94.52 265.924 93.4238C268.162 91.1944 269.418 88.1792 269.418 85.0365C269.418 81.8937 268.162 78.8785 265.924 76.6491C264.843 75.5522 263.547 74.6845 262.116 74.0987C260.685 73.5128 259.149 73.2211 257.6 73.2412M257.6 91.0085C256.399 91.0436 255.214 90.7231 254.198 90.088C253.182 89.4529 252.38 88.532 251.895 87.4433C251.411 86.3546 251.265 85.1476 251.478 83.9767C251.69 82.8058 252.251 81.7242 253.088 80.8705C253.925 80.0168 255.001 79.4297 256.177 79.1844C257.353 78.9391 258.576 79.0467 259.69 79.4935C260.804 79.9403 261.758 80.7059 262.43 81.6924C263.102 82.6788 263.461 83.8413 263.462 85.0309C263.475 85.8048 263.334 86.5735 263.046 87.2932C262.758 88.0128 262.33 88.6692 261.785 89.2245C261.241 89.7799 260.591 90.2234 259.873 90.5296C259.154 90.8357 258.382 90.9984 257.6 91.0085Z" fill="#ED4D2D"/>
<path d="M283.228 73.3508C280.097 73.3625 277.093 74.5855 274.86 76.7587C272.653 79.0022 271.418 82.0094 271.417 85.1406C271.438 88.2679 272.67 91.2681 274.86 93.5224C277.087 95.7108 280.09 96.9498 283.228 96.9744C284.778 96.9774 286.313 96.6736 287.743 96.0807C289.172 95.4879 290.467 94.6181 291.552 93.5224C293.79 91.293 295.046 88.2778 295.046 85.135C295.046 81.9923 293.79 78.9771 291.552 76.7477C290.47 75.6513 289.174 74.7839 287.744 74.1981C286.313 73.6123 284.777 73.3203 283.228 73.3398M283.228 91.1071C282.027 91.1422 280.842 90.8217 279.826 90.1866C278.81 89.5515 278.008 88.6307 277.523 87.542C277.039 86.4533 276.893 85.2462 277.106 84.0753C277.318 82.9044 277.879 81.8229 278.716 80.9691C279.553 80.1154 280.629 79.5283 281.805 79.283C282.981 79.0377 284.204 79.1453 285.318 79.5921C286.432 80.0389 287.386 80.8045 288.058 81.7909C288.73 82.7774 289.089 83.9399 289.09 85.1295C289.103 85.9033 288.962 86.6721 288.674 87.3918C288.386 88.1114 287.958 88.7678 287.413 89.3232C286.869 89.8785 286.219 90.322 285.501 90.6282C284.782 90.9343 284.01 91.0971 283.228 91.1071Z" fill="#ED4D2D"/>
<path d="M314.362 63.4141V75.3031C312.715 73.9412 310.61 73.2442 308.467 73.351C306.982 73.3006 305.503 73.557 304.123 74.1039C302.744 74.6508 301.495 75.4761 300.456 76.5272C298.327 78.7747 297.181 81.7635 297.269 84.8429C297.178 88.0053 298.319 91.0812 300.456 93.4343C301.562 94.4813 302.867 95.2996 304.296 95.8412C305.726 96.3828 307.25 96.6368 308.779 96.5885C309.797 96.6537 310.817 96.51 311.776 96.1665C312.734 95.823 313.611 95.2871 314.351 94.5923V96.1694H320V63.4141H314.362ZM308.79 90.9197C307.543 91.0468 306.286 90.7967 305.184 90.2025C304.083 89.6083 303.19 88.6978 302.622 87.591C302.054 86.4843 301.838 85.2332 302.002 84.0026C302.167 82.7719 302.705 81.6196 303.544 80.6973C304.384 79.775 305.486 79.126 306.705 78.836C307.925 78.546 309.204 78.6284 310.375 79.0725C311.547 79.5165 312.555 80.3014 313.266 81.3236C313.978 82.3458 314.36 83.5574 314.362 84.7988C314.415 86.3345 313.864 87.8307 312.824 88.9723C311.785 90.114 310.339 90.8121 308.79 90.9197Z" fill="#ED4D2D"/>
<path d="M56.2709 46H15.3543L8 56.7199L9.91657 97.5815C9.9795 98.8709 10.541 100.087 11.4847 100.978C12.4285 101.869 13.6823 102.367 14.9866 102.368H22.6752V87.1924C22.6752 86.5502 22.4373 85.9302 22.0066 85.4498L19.9451 83.1448C19.4211 82.4804 19.1384 81.6607 19.1429 80.8178V66.6127C19.1429 66.3202 19.2603 66.0397 19.4692 65.8329C19.6782 65.6261 19.9616 65.5099 20.2571 65.5099H22.2406V77.7076C22.2406 77.9797 22.3498 78.2406 22.5441 78.4329C22.7384 78.6253 23.002 78.7333 23.2768 78.7333H23.4217C23.6966 78.7333 23.9601 78.6253 24.1545 78.4329C24.3488 78.2406 24.458 77.9797 24.458 77.7076V65.554H27.3217V77.7518C27.3217 78.0238 27.4309 78.2847 27.6252 78.477C27.8196 78.6694 28.0831 78.7774 28.358 78.7774H28.5029C28.7777 78.7774 29.0413 78.6694 29.2356 78.477C29.43 78.2847 29.5391 78.0238 29.5391 77.7518V65.554H31.5226C31.8181 65.554 32.1015 65.6702 32.3105 65.877C32.5195 66.0838 32.6368 66.3644 32.6368 66.6569V80.8178C32.6377 81.643 32.3636 82.4454 31.8569 83.1007L29.7954 85.4057C29.3647 85.886 29.1268 86.506 29.1268 87.1483V102.335H42.4983V85.9351C42.4776 85.4999 42.3683 85.0733 42.1768 84.681C41.9853 84.2886 41.7156 83.9387 41.384 83.6522C41.0223 83.3939 40.6831 83.1062 40.37 82.7919C38.518 80.8223 37.5182 78.2137 37.5843 75.524C37.5843 70.164 41.1054 64.7379 45.3843 64.7379C49.6631 64.7379 53.1843 70.164 53.1843 75.524C53.2503 78.2137 52.2505 80.8223 50.3986 82.7919C50.0854 83.1062 49.7463 83.394 49.3846 83.6522C49.0529 83.9387 48.7832 84.2886 48.5918 84.681C48.4003 85.0733 48.2909 85.4999 48.2703 85.9351V102.379H56.4603C57.7653 102.38 59.0207 101.884 59.9651 100.992C60.9094 100.1 61.4701 98.8828 61.5303 97.5925L63.4469 56.731L56.2709 46ZM47.7466 57.0287H23.8786V51.7901C23.8786 51.4976 23.996 51.2171 24.205 51.0103C24.4139 50.8034 24.6973 50.6872 24.9929 50.6872H46.5766C46.8721 50.6872 47.1555 50.8034 47.3645 51.0103C47.5735 51.2171 47.6909 51.4976 47.6909 51.7901L47.7466 57.0287Z" fill="#ED4D2D"/>
</svg>
