<svg width="546" height="108" viewBox="0 0 546 108" fill="none" xmlns="http://www.w3.org/2000/svg">
<path d="M520.931 85.9858H472.571C459.257 85.9858 448.354 81.1871 448.354 75.3266C448.354 69.466 459.257 64.6673 472.571 64.6673H478.705C492.02 64.6673 502.922 59.8686 502.922 54.0081C502.922 48.1476 492.02 43.3489 478.705 43.3489H373.104C359.789 43.3489 348.887 38.5501 348.887 32.6896C348.887 26.8291 359.789 22.0304 373.104 22.0304H386.849C400.163 22.0304 411.066 17.2317 411.066 11.3711C411.066 5.51063 400.163 0.711914 386.849 0.711914H157.226C143.911 0.711914 133.009 5.51063 133.009 11.3711C133.009 17.2317 143.911 22.0304 157.226 22.0304H193.149C206.464 22.0304 217.366 26.8291 217.366 32.6896C217.366 38.5501 206.464 43.3489 193.149 43.3489H129.1C115.786 43.3489 104.883 48.1476 104.883 54.0081C104.883 59.8686 115.786 64.6673 129.1 64.6673H292.636C305.95 64.6673 316.853 69.466 316.853 75.3266C316.853 81.1871 305.95 85.9858 292.636 85.9858H25.0696C11.7549 85.9858 0.852539 90.7845 0.852539 96.645C0.852539 102.506 11.7549 107.304 25.0696 107.304H520.931C534.246 107.304 545.148 102.506 545.148 96.645C545.148 90.7845 534.246 85.9858 520.931 85.9858Z" fill="#F17D00" fill-opacity="0.5"/>
</svg>
