<svg width="435" height="253" viewBox="0 0 435 253" fill="none" xmlns="http://www.w3.org/2000/svg">
<path d="M114.637 141.631V129.062C114.637 128.895 114.512 128.769 114.344 128.769C108.467 128.79 13.9604 128.832 13.9604 128.832C10.9901 128.832 8.18716 127.682 6.09539 125.57C3.87812 123.395 2.72765 120.425 2.83223 117.33C3.04141 111.265 8.29175 106.581 14.337 106.581H88.5947C88.8248 106.581 88.9922 106.414 88.9922 106.184C88.9294 104.281 88.6993 96.2294 88.6575 94.2009C88.6575 93.929 88.4274 93.7408 88.1764 93.7408H55.4611C52.4908 93.7408 49.7088 92.5906 47.5961 90.4784C45.3788 88.3035 44.2283 85.3549 44.3329 82.2389C44.5421 76.1742 49.7715 71.5107 55.8376 71.5107H218.347C221.317 71.5107 224.099 72.6609 226.191 74.7731C228.367 76.948 229.559 79.8548 229.475 82.929C229.308 89.0145 224.058 93.7617 217.971 93.7617H105.266C105.099 93.7617 104.952 93.8872 104.952 94.0754C104.952 95.7693 104.952 104.051 104.973 106.142C104.973 106.414 105.182 106.623 105.454 106.623H158.125C161.074 106.623 163.877 107.773 165.99 109.906C168.103 112.018 169.253 114.8 169.253 117.769C169.253 123.897 164.254 128.895 158.125 128.895H132.313H130.305C130.263 128.581 130.367 140.815 130.305 141.693C130.305 141.714 130.325 141.735 130.346 141.735H186.908C189.857 141.735 192.66 142.885 194.773 144.997C196.927 147.151 198.099 149.996 198.036 153.049C197.931 159.197 192.618 163.986 186.469 163.986H92.7364C89.7661 163.986 86.9841 162.836 84.8714 160.724C82.6959 158.57 81.5245 155.684 81.6082 152.61C81.7337 146.482 87.0468 141.735 93.1757 141.735H114.616C114.616 141.735 114.658 141.735 114.658 141.693L114.637 141.631Z" stroke="white" stroke-width="2" stroke-miterlimit="10"/>
<path d="M294.613 224.11V208.99C294.613 208.802 294.466 208.634 294.278 208.634C287.229 208.655 173.604 208.697 173.604 208.697C170.027 208.697 166.659 207.296 164.149 204.766C161.493 202.131 160.091 198.596 160.217 194.853C160.468 187.575 166.764 181.929 174.064 181.929H263.341C263.613 181.929 263.822 181.72 263.822 181.448C263.759 179.148 263.487 169.486 263.404 167.039C263.404 166.726 263.132 166.475 262.818 166.475H223.472C219.916 166.475 216.548 165.074 214.017 162.543C211.36 159.929 209.959 156.374 210.084 152.631C210.336 145.353 216.632 139.728 223.911 139.728H419.24C422.817 139.728 426.164 141.129 428.674 143.659C431.31 146.294 432.711 149.766 432.628 153.467C432.439 160.786 426.122 166.475 418.801 166.475H283.338C283.129 166.475 282.962 166.642 282.962 166.851C282.962 168.901 282.983 178.834 282.983 181.364C282.983 181.678 283.234 181.929 283.547 181.929H346.865C350.421 181.929 353.768 183.33 356.32 185.882C358.851 188.412 360.253 191.758 360.253 195.334C360.253 202.695 354.249 208.697 346.865 208.697H315.844H313.418C313.355 208.321 313.501 223.022 313.418 224.089C313.418 224.131 313.439 224.151 313.481 224.151H381.463C385.019 224.151 388.366 225.553 390.918 228.083C393.512 230.655 394.913 234.085 394.85 237.745C394.725 245.127 388.324 250.899 380.94 250.899H268.257C264.701 250.899 261.333 249.497 258.802 246.967C256.187 244.395 254.786 240.902 254.869 237.222C255.037 229.861 261.416 224.151 268.78 224.151H294.55C294.55 224.151 294.592 224.151 294.592 224.11H294.613Z" stroke="white" stroke-width="2" stroke-miterlimit="10"/>
<path d="M275.18 71.9708V59.4442C275.18 59.2769 275.055 59.1514 274.887 59.1514C269.03 59.1723 174.901 59.2141 174.901 59.2141C171.93 59.2141 169.148 58.0639 167.078 55.9518C164.881 53.7769 163.71 50.8282 163.835 47.7331C164.044 41.6894 169.253 37.0259 175.298 37.0259H249.263C249.493 37.0259 249.661 36.8586 249.661 36.6286C249.598 34.7255 249.368 26.716 249.326 24.6875C249.326 24.4157 249.096 24.2274 248.845 24.2274H216.255C213.306 24.2274 210.524 23.0773 208.432 20.9651C206.235 18.7902 205.064 15.8624 205.169 12.7674C205.378 6.74455 210.586 2.08105 216.632 2.08105H378.472C381.442 2.08105 384.203 3.23124 386.295 5.34341C388.47 7.51832 389.642 10.4042 389.558 13.4575C389.391 19.5221 384.161 24.2484 378.095 24.2484H265.851C265.683 24.2484 265.537 24.3738 265.537 24.562C265.537 26.256 265.537 34.4955 265.558 36.5868C265.558 36.8586 265.767 37.0677 266.039 37.0677H318.501C321.429 37.0677 324.232 38.2179 326.324 40.3301C328.437 42.4214 329.587 45.2027 329.587 48.1514C329.587 54.2579 324.609 59.235 318.501 59.235H292.793H290.785C290.743 58.9214 290.847 71.0925 290.785 71.9917C290.785 72.0126 290.785 72.0335 290.827 72.0335H347.158C350.086 72.0335 352.889 73.1837 354.981 75.2959C357.136 77.429 358.286 80.2731 358.244 83.3054C358.14 89.4328 352.847 94.2008 346.719 94.2008H253.363C250.414 94.2008 247.632 93.0506 245.54 90.9385C243.385 88.8054 242.214 85.9195 242.277 82.8662C242.402 76.7598 247.694 72.0335 253.802 72.0335H275.159C275.159 72.0335 275.201 72.0335 275.201 71.9917L275.18 71.9708Z" stroke="white" stroke-width="2" stroke-miterlimit="10"/>
</svg>
