<svg width="563" height="199" viewBox="0 0 563 199" fill="none" xmlns="http://www.w3.org/2000/svg">
<g clip-path="url(#clip0_1431_1641)">
<path d="M432.064 199C415.943 199 401.392 189.416 394.839 175.085C385.947 189.661 369.888 198.816 352.414 198.816C331.401 198.816 312.573 185.435 305.62 165.93C301.959 167.308 298.021 168.012 294.114 168.012C276.178 168.012 261.564 153.498 261.564 135.616C261.564 117.734 276.147 103.22 294.114 103.22C296.329 103.22 298.544 103.434 300.698 103.894C301.867 97.3717 305.005 91.2783 309.742 86.5016C317.434 78.7241 327.709 74.4372 338.692 74.4372C345.799 74.4372 352.629 76.2132 358.69 79.6427C359.028 54.5648 379.641 34.2637 404.929 34.2637C427.234 34.2637 446.278 50.1555 450.369 71.6814C452 71.4365 453.631 71.2834 455.292 71.2834C469.475 71.2834 481.534 80.4388 485.319 93.8198C495.902 94.0035 505.9 98.5046 513.038 106.343C520.052 104.996 526.759 104.292 532.943 104.292C551.648 104.292 560.447 110.569 561.4 111.273C561.462 111.304 561.585 111.426 561.616 111.457C563.246 112.804 563.492 115.346 562.108 117.06C561.339 118.01 560.17 118.561 558.939 118.561C558.539 118.561 558.109 118.5 557.709 118.377C557.401 118.438 556.632 118.561 555.063 118.928C554.694 119.02 554.448 119.081 554.263 119.112C550.294 119.939 546.51 121.439 543.034 123.644C539.373 125.94 536.142 128.941 533.435 132.554C531.497 135.126 530.051 138.035 528.513 141.097C527.22 143.669 525.898 146.303 524.236 148.844C517.591 159.071 506.731 166.359 494.486 168.9C494.394 168.931 494.271 168.961 494.21 168.992C491.102 169.788 487.841 170.217 484.549 170.217C477.904 170.217 471.351 168.472 465.598 165.226C465.598 165.256 465.598 165.318 465.598 165.348C465.66 174.259 462.276 182.649 455.999 189.018C449.723 195.356 441.355 198.908 432.403 199H432.064ZM399.823 164.032C402.53 179.372 416.313 190.916 432.064 190.916H432.372C439.109 190.855 445.478 188.16 450.216 183.353C454.953 178.546 457.538 172.177 457.476 165.44C457.445 160.265 455.353 155.427 451.662 151.784C448.001 148.201 443.14 146.211 438.033 146.211C433.879 146.241 430.188 147.803 427.419 150.62C424.65 153.406 423.142 157.111 423.173 161.061C423.173 164.001 424.373 166.726 426.465 168.778C428.526 170.799 431.264 171.932 434.187 171.932C436.433 171.932 438.433 171.074 439.909 169.543C441.417 168.043 442.217 166.022 442.186 163.909C442.186 160.878 439.663 158.398 436.617 158.398C434.31 158.398 432.495 156.591 432.464 154.386C432.464 153.315 432.864 152.274 433.633 151.508C434.402 150.743 435.418 150.314 436.494 150.314C440.217 150.314 443.632 151.692 446.216 154.233C448.831 156.775 450.277 160.204 450.308 163.848C450.339 168.135 448.708 172.177 445.693 175.239C442.678 178.301 438.648 180.015 434.341 180.046C429.111 180.046 424.373 178.117 420.773 174.596C417.143 171.044 415.082 166.267 415.051 161.184C414.99 155.091 417.328 149.365 421.604 145.017C425.88 140.669 431.634 138.25 437.725 138.188C445.262 138.188 452.123 140.975 457.322 146.058C459.014 147.681 460.46 149.548 461.66 151.569C461.876 151.722 462.091 151.906 462.245 152.09C463.198 153.131 464.244 154.141 465.352 155.06C468.89 157.969 473.197 160.051 477.72 161.061L478.181 161.153C480.335 161.613 482.642 161.827 484.949 161.827C497.778 161.827 510.484 155.029 517.345 144.496C518.76 142.322 519.991 139.903 521.16 137.545C522.79 134.269 524.482 130.901 526.851 127.747C530.174 123.338 534.112 119.663 538.604 116.846C540.634 115.56 542.726 114.488 544.91 113.57C541.588 112.896 537.496 112.437 532.604 112.437C526.298 112.437 519.437 113.202 512.207 114.764C511.93 114.825 511.653 114.856 511.346 114.856C510.084 114.856 508.915 114.305 508.146 113.294L507.746 112.804C502.024 105.884 493.502 101.903 484.457 101.903L481.811 101.842C479.873 101.812 478.212 100.403 477.873 98.474C475.997 87.3895 466.429 79.3671 455.138 79.3671C452.677 79.3671 450.277 79.7345 447.97 80.5C447.57 80.6225 447.139 80.7144 446.708 80.7144C445.816 80.7144 444.924 80.4082 444.216 79.857C443.17 79.0303 442.555 77.7442 442.647 76.4275V76.0907C440.555 56.8613 424.311 42.378 404.806 42.378C383.794 42.378 366.689 59.4028 366.689 80.3163C366.689 82.2454 366.842 84.205 367.15 86.1341C368.658 87.7264 368.658 90.2066 367.119 91.7682C366.35 92.5337 365.335 92.9624 364.227 92.9624C363.12 92.9624 362.135 92.5643 361.366 91.7988C355.275 85.8279 347.184 82.5516 338.6 82.5516C330.017 82.5516 321.587 85.981 315.434 92.1969C310.727 96.9736 308.173 103.281 308.204 109.957C308.266 116.662 310.942 122.909 315.742 127.594C319.372 131.146 324.171 133.105 329.278 133.105C334.385 133.105 339.4 131.054 343.061 127.349C345.799 124.562 347.276 120.919 347.245 116.999C347.214 113.11 345.645 109.467 342.876 106.741C340.815 104.721 338.108 103.618 335.247 103.618C332.232 103.618 329.494 104.782 327.463 106.864C325.986 108.364 325.187 110.355 325.187 112.437C325.187 114.55 326.048 116.509 327.555 117.979C328.601 118.989 329.955 119.541 331.432 119.541C332.909 119.541 334.324 118.959 335.37 117.887C336.139 117.122 337.154 116.693 338.262 116.693C339.369 116.693 340.354 117.091 341.123 117.857C342.723 119.418 342.753 121.99 341.184 123.582C338.6 126.216 335.154 127.655 331.432 127.655C327.709 127.655 324.448 126.277 321.864 123.766C318.818 120.796 317.126 116.785 317.065 112.529C317.034 108.272 318.664 104.231 321.649 101.199C325.217 97.586 329.986 95.5651 335.062 95.5345C340.231 95.5345 344.968 97.4636 348.568 100.954C357.521 109.712 357.644 124.103 348.845 133.013C343.646 138.28 336.693 141.158 329.278 141.158C321.864 141.158 315.188 138.372 310.05 133.32C304.205 127.624 300.759 120.122 300.175 112.069C298.144 111.549 296.083 111.273 294.022 111.273C280.546 111.273 269.625 122.174 269.625 135.555C269.625 148.936 280.577 159.837 294.022 159.837C298.206 159.837 302.328 158.765 305.958 156.744C306.328 156.53 306.758 156.377 307.22 156.285C307.22 156.285 307.404 156.285 307.435 156.254C307.589 156.254 307.835 156.193 308.081 156.193C309.958 156.193 311.588 157.448 312.019 159.255C316.603 177.719 333.155 190.61 352.291 190.61C371.426 190.61 386.501 178.944 391.916 161.582C392.439 159.867 394.008 158.734 395.792 158.734C396.192 158.734 396.592 158.796 396.992 158.918C398.038 159.255 398.869 159.929 399.392 160.908C399.884 161.858 400.007 162.899 399.699 163.909L399.823 164.032Z" fill="white"/>
<path d="M559.862 113.417C559.862 113.417 559.8 113.386 559.8 113.356C558.724 112.529 544.664 102.486 512.053 109.192C505.223 101.077 495.225 96.4229 484.611 96.4229H483.226C480.427 83.2869 468.859 73.9172 455.261 73.9172C452.861 73.9172 450.492 74.2234 448.185 74.8051C445.447 53.1261 427.018 36.8975 404.929 36.8975C380.871 36.8975 361.304 56.3718 361.304 80.3168C361.304 81.7559 361.397 83.2257 361.52 84.6648C346.537 73.4579 325.125 74.7439 311.619 88.4005C306.543 93.5446 303.528 100.128 302.943 107.232C300.113 106.374 297.159 105.915 294.144 105.915C277.654 105.915 264.21 119.266 264.21 135.709C264.21 152.152 277.624 165.502 294.144 165.502C298.698 165.502 303.189 164.461 307.25 162.501C313.034 182.496 331.339 196.306 352.413 196.306C371.18 196.306 387.732 185.466 395.269 168.809C399.853 184.915 414.959 196.52 432.064 196.52C432.187 196.52 432.279 196.52 432.402 196.52C440.647 196.459 448.369 193.182 454.153 187.334C459.937 181.486 463.075 173.739 463.014 165.532C463.014 163.665 462.767 161.827 462.337 160.051C468.613 165.012 476.489 167.768 484.58 167.768C487.656 167.768 490.702 167.37 493.656 166.604C493.717 166.604 493.779 166.574 493.84 166.543C505.162 164.246 515.653 157.479 522.113 147.558C523.682 145.139 524.974 142.567 526.236 140.057C527.836 136.872 529.343 133.841 531.404 131.115C534.327 127.227 537.773 124.012 541.711 121.562C545.464 119.204 549.525 117.551 553.801 116.693C553.955 116.663 554.201 116.602 554.478 116.54C556.478 116.05 557.739 115.836 558.231 115.897C558.847 116.265 559.616 116.112 560.077 115.56C560.569 114.948 560.477 114.06 559.862 113.54V113.417ZM553.77 113.601C553.524 113.662 553.309 113.723 553.186 113.723C548.571 114.673 544.172 116.448 540.111 118.99C535.896 121.654 532.173 125.083 529.035 129.248C526.82 132.187 525.19 135.464 523.59 138.648C522.39 141.067 521.129 143.578 519.621 145.874C510.822 159.378 493.194 166.849 477.689 163.665L477.196 163.573C472.243 162.47 467.567 160.205 463.721 157.02C462.521 156.04 461.383 154.969 460.337 153.805C460.183 153.621 459.968 153.529 459.752 153.438C458.614 151.417 457.168 149.549 455.476 147.865C450.708 143.21 444.431 140.669 437.725 140.73C432.31 140.791 427.234 142.935 423.419 146.762C419.635 150.62 417.543 155.703 417.604 161.093C417.635 165.471 419.389 169.605 422.558 172.667C425.696 175.76 429.849 177.413 434.279 177.382C437.879 177.352 441.263 175.913 443.785 173.371C446.308 170.799 447.693 167.431 447.662 163.848C447.662 160.909 446.462 158.153 444.339 156.071C442.216 153.989 439.417 152.886 436.463 152.917C435.663 152.917 435.017 153.56 435.017 154.356C435.017 155.152 435.663 155.795 436.463 155.795H436.556C441.047 155.795 444.708 159.408 444.739 163.879C444.739 166.696 443.693 169.36 441.693 171.381C439.694 173.402 437.048 174.504 434.218 174.535C434.187 174.535 434.125 174.535 434.094 174.535C430.495 174.535 427.111 173.157 424.557 170.646C421.973 168.105 420.527 164.706 420.496 161.093C420.466 156.469 422.219 152.121 425.48 148.814C428.741 145.507 433.079 143.67 437.725 143.639C443.632 143.578 449.2 145.844 453.415 149.947C457.63 154.081 459.968 159.562 460.029 165.441C460.091 172.881 457.23 179.893 452 185.221C446.77 190.518 439.755 193.489 432.279 193.55C432.187 193.55 432.064 193.55 431.972 193.55C414.805 193.55 399.853 180.934 397.084 164.093C397.084 164.032 397.053 163.971 397.023 163.91C397.084 163.726 397.146 163.542 397.207 163.358C397.453 162.593 397.023 161.797 396.253 161.552C395.484 161.307 394.684 161.736 394.438 162.501C388.685 180.965 371.734 193.336 352.321 193.336C332.908 193.336 314.388 179.618 309.496 159.99C309.311 159.255 308.573 158.796 307.835 158.919C307.835 158.919 307.804 158.919 307.773 158.919C307.619 158.919 307.435 158.98 307.281 159.072C303.282 161.307 298.698 162.501 294.052 162.501C279.162 162.501 267.01 150.437 267.01 135.586C267.01 120.735 279.131 108.671 294.052 108.671C297.036 108.671 299.959 109.161 302.728 110.11C302.851 118.194 306.081 125.788 311.896 131.452C316.726 136.168 323.002 138.526 329.309 138.526C335.616 138.526 342.169 136.076 347.029 131.146C354.813 123.246 354.721 110.539 346.783 102.792C343.707 99.7605 339.615 98.107 335.277 98.107C335.216 98.107 335.185 98.107 335.123 98.107C330.755 98.1377 326.632 99.883 323.556 103.006C318.356 108.273 318.449 116.724 323.71 121.899C328.047 126.124 335.031 126.063 339.307 121.776C339.861 121.195 339.861 120.307 339.307 119.725C338.723 119.174 337.831 119.174 337.277 119.725C334.139 122.909 328.97 122.94 325.771 119.817C321.618 115.775 321.587 109.13 325.648 104.997C328.17 102.424 331.555 101.016 335.185 100.985C335.216 100.985 335.277 100.985 335.308 100.985C338.877 100.985 342.23 102.363 344.784 104.843C351.583 111.488 351.675 122.389 344.999 129.125C336.508 137.729 322.602 137.821 313.988 129.401C308.696 124.226 305.743 117.306 305.681 109.926C305.62 102.547 308.45 95.5656 313.649 90.2989C327.217 76.5505 349.491 76.3668 363.273 89.8702C363.827 90.4214 364.75 90.4214 365.304 89.8702C365.858 89.2884 365.858 88.4005 365.304 87.8493C365.119 87.6962 364.965 87.5431 364.781 87.3594C364.381 85.0323 364.166 82.6439 364.166 80.2555C364.166 57.9028 382.44 39.7145 404.898 39.7145C425.849 39.7145 443.232 55.3001 445.385 75.9993V76.5505C445.324 77.0404 445.539 77.4997 445.908 77.7753C446.277 78.0815 446.8 78.1427 447.231 78.0202C449.815 77.1935 452.492 76.7648 455.23 76.7648C467.813 76.7648 478.458 85.7059 480.55 98.0458C480.673 98.7194 481.257 99.24 481.934 99.24L484.518 99.3012C494.363 99.3012 503.623 103.649 509.869 111.182L510.269 111.672C510.607 112.1 511.161 112.315 511.715 112.192C534.327 107.385 547.864 110.937 554.017 113.54C553.924 113.54 553.832 113.601 553.709 113.601H553.77Z" fill="white"/>
<path d="M143.642 190.702C138.381 190.702 133.213 190.181 128.229 189.14L127.244 188.926C116.63 186.568 106.662 181.73 98.4173 174.933C97.4944 174.167 96.5714 173.371 95.6485 172.544C87.4957 182.006 75.4666 187.609 62.8837 187.609C39.1331 187.609 19.7819 168.38 19.7819 144.711C19.7819 140.209 20.4587 135.8 21.8432 131.575C8.12197 121.715 0 105.946 0 89.0432C0 60.1073 23.6583 36.5604 52.7313 36.5604C52.9158 36.5604 53.1004 36.5604 53.285 36.5604C56.5154 28.5073 61.2839 21.3116 67.4677 15.1263C77.2818 5.35852 90.2954 0 104.17 0C118.045 0 131.059 5.35852 140.873 15.1263C146.872 21.0972 150.902 28.7217 152.502 36.9891C160.286 31.7224 169.546 28.8748 179.022 28.8748C191.789 28.8748 203.726 33.8352 212.617 42.8681C221.262 51.6255 225.108 63.9654 223.139 75.9378C229.507 74.1925 238.983 72.2328 249.474 72.2328C264.948 72.2328 277.962 76.4584 288.114 84.7871C288.207 84.8483 288.268 84.9095 288.361 85.0014C289.314 85.9506 289.407 87.4816 288.545 88.5227L287.007 90.3905C286.607 91.3704 285.653 92.044 284.577 92.044C284.33 92.044 284.115 92.0134 283.869 91.9522C283.223 91.9522 281.592 92.1053 277.224 93.1463C276.547 93.2994 276.116 93.4219 275.839 93.4525C267.81 95.106 260.149 98.168 253.104 102.608C245.751 107.232 239.229 113.294 233.753 120.582C229.876 125.726 226.892 131.728 223.969 137.515C221.539 142.353 219.047 147.313 216.001 152.029C200.68 175.514 172.284 190.702 143.673 190.733L143.642 190.702ZM94.3563 161.062C95.5562 161.062 96.6945 161.552 97.4944 162.44C99.4633 164.583 101.586 166.604 103.832 168.441C111.062 174.412 119.799 178.638 129.09 180.689L130.013 180.873C134.443 181.792 139.058 182.251 143.734 182.251C169.515 182.251 195.112 168.564 208.895 147.405C211.694 143.118 214.063 138.372 216.37 133.779C219.478 127.563 222.647 121.225 226.984 115.468C233.107 107.354 240.367 100.587 248.612 95.4122C256.242 90.6355 264.487 87.2367 273.163 85.3382C266.364 82.2762 258.457 80.7452 249.535 80.7452C236.122 80.7452 224.246 84.2971 220.216 85.675C218.278 89.9618 215.571 93.7894 212.156 97.1269C206.187 102.945 198.311 106.16 189.943 106.16C181.36 106.16 173.33 102.822 167.331 96.7289C162.439 91.7684 159.763 85.1851 159.824 78.2343C159.886 71.2836 162.655 64.7615 167.669 59.8623C171.761 55.8511 177.145 53.6464 182.837 53.6464H183.175C188.99 53.7077 194.435 56.0042 198.527 60.1379C200.157 61.7914 200.127 64.4859 198.465 66.1088C197.665 66.9049 196.619 67.303 195.512 67.303C194.404 67.303 193.297 66.8437 192.497 66.0476C190.005 63.5061 186.651 62.0976 183.113 62.0669C179.483 62.0669 176.161 63.4142 173.669 65.8638C170.284 69.1708 168.408 73.5801 168.377 78.2956C168.346 83.0111 170.131 87.451 173.453 90.8192C177.791 95.2285 183.606 97.6781 189.82 97.7394C196.158 97.7394 201.942 95.3816 206.31 91.1254C209.325 88.1859 211.633 84.7258 213.171 80.8064C217.54 69.722 214.986 57.1677 206.679 48.7778C199.357 41.3678 189.574 37.2953 179.114 37.2953C169.515 37.2953 160.378 40.786 153.271 47.1243C152.748 57.5964 148.38 67.3642 140.935 74.7743C134.382 81.2964 125.675 84.8789 116.384 84.8789C107.093 84.8789 98.3866 81.2964 91.8336 74.7743C86.419 69.3851 83.4348 62.2507 83.4348 54.6263C83.4348 47.0019 86.419 39.8674 91.8336 34.4782C92.6335 33.6821 93.7103 33.2534 94.8178 33.2534C95.9254 33.2534 97.0021 33.6821 97.802 34.4782C99.4633 36.1317 99.4633 38.7957 97.802 40.4491C93.9872 44.246 91.8951 49.2677 91.8951 54.6569C91.8951 60.046 93.9872 65.0677 97.802 68.8646C102.755 73.7944 109.339 76.5196 116.384 76.5196C123.429 76.5196 130.013 73.7944 134.966 68.8646C141.119 62.7406 144.626 54.5956 144.842 45.9301C144.78 45.5015 144.78 45.1034 144.842 44.6747C144.749 35.7949 141.242 27.4356 134.935 21.1585C126.721 12.9829 115.83 8.48177 104.232 8.48177C92.6335 8.48177 81.7427 12.9829 73.5284 21.1585C67.5292 27.1294 63.0683 34.2333 60.2995 42.2251C55.9616 54.8712 56.3615 68.5584 61.3762 80.8371C62.2377 82.9805 61.1916 85.4607 59.0381 86.3181C58.5458 86.5324 57.9921 86.6243 57.4383 86.6243C55.7155 86.6243 54.1772 85.5832 53.5004 83.9909C48.4857 71.651 47.4704 57.9638 50.6085 45.1034C27.2271 46.2363 8.52191 65.527 8.52191 89.1045C8.52191 104.078 16.0593 117.887 28.673 126.063L28.9807 126.247C29.3191 126.461 29.596 126.737 29.8113 127.073L30.9189 128.88C31.3496 129.584 31.4111 130.442 31.1034 131.207L30.7958 131.942C29.1652 136.014 28.3346 140.332 28.3346 144.772C28.3346 163.787 43.8709 179.25 62.976 179.25C73.5899 179.25 83.7424 174.32 90.2646 165.992C90.0492 164.644 90.5107 163.236 91.5875 162.256C92.3566 161.552 93.3719 161.154 94.4486 161.154L94.3563 161.062Z" fill="white"/>
<path d="M286.484 86.8388C263.257 67.7012 230 76.3361 219.601 79.7043C223.077 67.7012 220.155 54.1978 210.741 44.6749C194.404 28.1094 168.07 27.099 150.472 41.7048C149.734 32.6718 145.919 23.8226 138.997 16.9331C129.675 7.6552 117.307 2.57227 104.14 2.57227C90.9724 2.57227 78.6049 7.68582 69.2831 16.9331C62.8224 23.3633 58.023 30.9877 55.0388 39.1939C54.2697 39.1633 53.5006 39.1327 52.7315 39.1327C25.1045 39.1633 2.61523 61.5466 2.61523 89.0434C2.61523 105.793 10.9526 121.286 24.9506 130.564C23.2586 135.065 22.3971 139.842 22.3971 144.711C22.3971 166.941 40.5485 185.007 62.8839 185.007C75.6822 185.007 87.7728 178.913 95.4026 168.717C96.91 170.217 98.4791 171.626 100.079 172.973C108.016 179.526 117.615 184.18 127.798 186.446L128.783 186.66C133.674 187.671 138.658 188.161 143.673 188.161C170.9 188.161 198.742 173.769 213.817 150.651C216.801 146.058 219.263 141.159 221.662 136.382C224.616 130.472 227.661 124.379 231.692 119.051C237.383 111.488 244.121 105.241 251.75 100.434C259.073 95.8411 267.01 92.626 275.347 90.9419C275.624 90.8806 276.055 90.7888 276.639 90.6357C282.269 89.2578 284.084 89.2271 284.607 89.4415C284.607 89.4415 284.546 89.4415 284.484 89.3802L286.546 86.9L286.484 86.8388ZM275.809 87.4512C275.316 87.5737 274.916 87.6655 274.64 87.7268C265.902 89.5027 257.596 92.8709 249.966 97.6477C241.998 102.669 234.953 109.191 229.046 117.061C224.862 122.634 221.724 128.85 218.709 134.882C216.371 139.567 213.94 144.405 211.048 148.814C193.912 175.117 159.578 189.661 129.398 183.415L128.475 183.2C118.784 181.057 109.678 176.617 102.109 170.401C99.7712 168.472 97.5561 166.39 95.5256 164.155C94.9103 163.512 93.8951 163.45 93.249 164.063C92.6645 164.583 92.6029 165.41 92.9721 166.053C92.8491 166.298 92.7875 166.543 92.7875 166.788C85.7731 176.158 74.6669 181.73 62.8839 181.73C42.3329 181.73 25.6275 165.104 25.6275 144.65C25.6275 139.873 26.5197 135.249 28.304 130.87L28.6117 130.136L27.5041 128.329L27.1965 128.145C13.8445 119.48 5.84556 104.874 5.84556 89.0128C5.84556 63.2919 26.8581 42.3784 52.7007 42.3784C53.1314 42.3784 53.5314 42.409 53.9621 42.409C49.9934 55.4532 50.4549 69.7221 55.8387 82.95C56.0849 83.5624 56.7002 83.9605 57.3462 83.9605C57.5616 83.9605 57.7462 83.9299 57.9615 83.838C58.7922 83.5012 59.1921 82.552 58.8537 81.7558C53.5006 68.5892 53.2852 54.3202 57.6846 41.4292C57.6846 41.3985 57.7154 41.3373 57.7154 41.3067C60.515 33.1617 65.1913 25.5986 71.5597 19.2602C80.2662 10.5947 91.8338 5.84862 104.109 5.84862C116.384 5.84862 127.983 10.6254 136.658 19.2602C143.765 26.3335 147.303 35.6114 147.334 44.8892C147.272 45.1648 147.242 45.4098 147.334 45.6854C147.149 54.7489 143.611 63.7512 136.689 70.6714C125.429 81.8783 107.093 81.8783 95.8333 70.6714C91.5262 66.3845 89.1573 60.6892 89.1573 54.6264C89.1573 48.5637 91.5262 42.8683 95.8333 38.5815C96.4793 37.9385 96.4793 36.928 95.8333 36.3156C95.1872 35.6726 94.172 35.6726 93.5567 36.3156C88.6343 41.2148 85.9269 47.7063 85.9269 54.6264C85.9269 61.5466 88.6343 68.038 93.5567 72.9372C106.078 85.3996 126.444 85.3996 138.966 72.9372C146.473 65.4659 150.318 55.7594 150.564 45.9609C166.839 30.5897 192.62 30.9877 208.403 46.9714C217.724 56.4024 220.062 70.1202 215.509 81.6946C215.509 81.6946 215.509 81.7558 215.478 81.7865C213.848 85.8895 211.356 89.7171 208.003 92.9934C203.142 97.7702 196.712 100.373 189.882 100.373C189.82 100.373 189.728 100.373 189.667 100.373C182.775 100.312 176.284 97.5864 171.454 92.6872C167.639 88.8291 165.578 83.7155 165.608 78.3264C165.67 72.9066 167.823 67.8543 171.7 64.0574C174.715 61.1179 178.683 59.495 182.868 59.495C182.929 59.495 182.96 59.495 183.021 59.495C187.298 59.5256 191.266 61.2098 194.251 64.2411C194.866 64.8842 195.912 64.8842 196.527 64.2411C197.173 63.6287 197.173 62.5877 196.527 61.9753C192.928 58.3315 188.128 56.3105 183.021 56.2799C177.914 56.2187 173.053 58.1784 169.392 61.7609C164.901 66.1702 162.409 72.0186 162.347 78.2958C162.286 84.5729 164.685 90.4826 169.116 94.9531C174.807 100.71 182.314 103.588 189.851 103.588C197.204 103.588 204.588 100.832 210.218 95.2899C213.725 91.8605 216.371 87.8799 218.155 83.6237C223.139 81.8477 256.488 70.7938 280.423 86.4407C279.07 86.6857 277.532 87.0225 275.747 87.4512H275.809Z" fill="white"/>
</g>
<defs>
<clipPath id="clip0_1431_1641">
<rect width="563" height="199" fill="white"/>
</clipPath>
</defs>
</svg>
